# Blender 5.0.1
# www.blender.org
mtllib bodyshell.006.mtl
o bodyshell.006
v 30.397137 47.249298 29.360971
v 29.734211 49.823669 28.217546
v 29.051786 52.398041 27.074123
v 28.427855 54.684208 26.057821
v 27.745430 56.948853 24.983744
v 27.257984 58.557770 24.127661
v 26.926521 59.380695 23.669710
v 26.848530 59.532501 23.547350
v 26.770538 59.703110 23.404825
v 30.767580 46.374840 -3.501879
v 30.455629 46.679440 29.244303
v 30.475128 46.557083 29.092499
v 30.494625 46.491142 28.880194
v 30.455629 46.398224 28.454224
v 30.436132 46.975815 29.351013
v 26.458561 61.003407 -2.490961
v 26.205090 61.634445 -2.298389
v 26.029608 61.998802 -1.920919
v 25.932119 62.211357 -1.421087
v 25.893124 62.308350 -0.878202
v 26.049109 61.928406 6.119543
v 26.146601 61.558666 13.409581
v 26.244093 61.213612 20.289053
v 26.263592 61.118473 20.916685
v 26.341585 60.963512 21.507387
v 26.458572 60.822594 21.941523
v 26.517065 60.582886 22.340088
v 30.748083 46.443932 -3.757917
v 30.689589 46.650795 -3.979750
v 30.650593 46.883270 -4.026886
v 29.987667 49.585258 -3.750557
v 29.461226 51.798058 -3.515673
v 28.486336 55.088028 -3.162327
v 27.394457 58.339710 -2.788136
v -30.397110 47.249298 29.360998
v -29.734184 49.823669 28.217573
v -29.051760 52.398045 27.074150
v -28.427832 54.684208 26.057848
v -27.745407 56.948853 24.983770
v -27.257961 58.557774 24.127687
v -26.926498 59.380699 23.669733
v -26.848507 59.532501 23.547373
v -26.770515 59.703110 23.404848
v -26.205090 61.634445 -2.298367
v -26.029608 61.998802 -1.920897
v -26.458561 61.003410 -2.490938
v -27.394457 58.339714 -2.788113
v -28.486336 55.088032 -3.162304
v -29.461229 51.798058 -3.515648
v -29.987671 49.585258 -3.750532
v -30.650597 46.883270 -4.026859
v -30.689592 46.650795 -3.979723
v -30.748087 46.443932 -3.757891
v -30.767584 46.374840 -3.501854
v -26.517042 60.582890 22.340111
v -26.458549 60.822598 21.941545
v -26.341562 60.963516 21.507410
v -26.263573 61.118473 20.916708
v -26.244078 61.213615 20.289076
v -26.146589 61.558666 13.409604
v -26.049105 61.928406 6.119566
v -25.893124 62.308350 -0.878180
v -25.932119 62.211357 -1.421064
v -30.455603 46.679440 29.244329
v -30.475101 46.557083 29.092525
v -30.494598 46.491142 28.880220
v -30.455603 46.398224 28.454250
v -30.436106 46.975815 29.351040
v -31.469507 43.525803 -9.664982
v -30.884573 46.275612 -9.136700
v -30.065664 49.689308 -8.592579
v -29.500227 52.043953 -8.206570
v -28.505835 55.341408 -7.638882
v -27.530943 58.638184 -7.090672
v -26.692537 61.053329 -6.648247
v -25.854130 63.468475 -6.205826
v -25.620155 63.951111 -5.793468
v -25.581160 64.135323 -5.546272
v -25.561663 64.243645 -5.237902
v -25.503168 64.366257 -4.520323
v -25.503166 64.087509 0.347332
v -25.483665 63.748085 6.270628
v -25.464165 63.333931 13.406138
v -25.425167 62.915268 20.971022
v -25.464159 62.768471 21.795555
v -25.542150 62.561859 22.583158
v -25.620142 62.312191 23.255209
v -25.737129 61.981857 23.852036
v -25.912611 61.646759 24.312460
v -26.088091 61.250481 24.696983
v -26.244074 60.775581 25.064743
v -26.380558 60.279839 25.394211
v -26.770514 59.289703 26.092117
v -27.316452 57.475281 27.209005
v -27.998877 55.140862 28.519636
v -28.681301 52.785599 29.791977
v -29.441715 50.124004 31.231092
v -30.182632 47.442245 32.651402
v -30.631083 45.716404 33.511566
v -31.040537 43.516098 34.193203
v 31.469500 43.525803 -9.665009
v 29.500219 52.043953 -8.206593
v 28.564325 55.360214 -7.659069
v 30.065657 49.689304 -8.592602
v 30.884565 46.275612 -9.136723
v 25.464176 63.333931 13.406117
v 25.483673 63.748085 6.270607
v 25.503166 64.087509 0.347309
v 25.503164 64.366257 -4.520344
v 25.561659 64.243645 -5.237923
v 25.581156 64.135323 -5.546295
v 25.620152 63.951111 -5.793488
v 25.854126 63.468475 -6.205849
v 26.692533 61.053329 -6.648270
v 27.530939 58.638184 -7.090694
v 26.244097 60.775581 25.064720
v 26.088114 61.250481 24.696960
v 25.912634 61.646759 24.312437
v 25.737152 61.981857 23.852013
v 25.620165 62.312187 23.255186
v 25.542173 62.561855 22.583136
v 25.464182 62.768471 21.795532
v 25.425186 62.915264 20.970999
v 31.040567 43.516098 34.193180
v 30.631113 45.716404 33.511543
v 30.182663 47.442242 32.651379
v 29.441746 50.124001 31.231066
v 28.681328 52.785599 29.791950
v 27.998903 55.140862 28.519609
v 27.316479 57.475281 27.208979
v 26.770540 59.289703 26.092094
v 26.380581 60.279839 25.394188
vn 0.9230 -0.3740 -0.0900
vn 0.8951 -0.4427 -0.0520
vn 0.9228 -0.3755 -0.0868
vn 0.8982 -0.4386 -0.0291
vn 0.9346 -0.3463 -0.0815
vn 0.9170 -0.3965 -0.0436
vn 0.9228 -0.3844 -0.0270
vn 0.9036 -0.4279 -0.0222
vn 0.9188 -0.3880 -0.0723
vn 0.8789 -0.4769 -0.0121
vn 0.9994 -0.0066 0.0338
vn 0.9796 -0.2010 0.0014
vn 0.9836 -0.1800 0.0099
vn 0.9940 0.0997 0.0460
vn 0.9743 -0.2253 -0.0085
vn 0.9897 -0.1416 -0.0193
vn 0.9645 -0.2623 -0.0313
vn 0.9947 -0.0799 -0.0651
vn 0.9748 -0.2157 -0.0561
vn 0.9549 -0.2913 -0.0575
vn 0.9546 -0.2895 -0.0707
vn 0.9486 -0.3065 -0.0783
vn 0.9483 -0.3037 -0.0922
vn 0.9422 -0.3204 -0.0981
vn 0.9415 -0.3203 -0.1048
vn 0.9365 -0.3355 -0.1022
vn 0.9369 -0.3345 -0.1015
vn 0.9226 -0.3758 -0.0874
vn -0.8998 -0.4329 -0.0544
vn -0.9044 -0.4137 -0.1045
vn -0.8992 -0.4329 -0.0633
vn -0.8782 -0.4780 -0.0184
vn -0.8809 -0.4731 0.0151
vn -0.9048 -0.4242 -0.0366
vn -0.9026 -0.4299 -0.0225
vn -0.9050 -0.4246 -0.0269
vn -0.9082 -0.4176 -0.0290
vn -0.9054 -0.4234 -0.0306
vn -0.9332 -0.3593 -0.0084
vn -0.9334 -0.3588 -0.0052
vn -0.9559 -0.2932 -0.0158
vn -0.9552 -0.2952 -0.0199
vn -0.9747 -0.2234 -0.0003
vn -0.9763 -0.2164 -0.0090
vn -0.9699 -0.2414 -0.0326
vn -0.9776 -0.2102 -0.0057
vn -0.9681 -0.2476 -0.0379
vn -0.9556 -0.2884 -0.0604
vn -0.9808 -0.1949 0.0065
vn -0.9723 -0.2337 0.0068
vn -0.9333 -0.3495 -0.0823
vn -0.9312 -0.3526 -0.0926
vn -0.9507 -0.3066 -0.0465
vn -0.9405 -0.3337 -0.0640
vn -0.9347 -0.3467 -0.0780
vn -0.9463 -0.3181 -0.0571
vn -0.9492 -0.3111 -0.0480
vn -0.9462 -0.3194 -0.0522
vn -0.9552 -0.2933 -0.0392
vn -0.9585 -0.2834 -0.0303
vn -0.9671 -0.2533 -0.0246
vn -0.9686 -0.2478 -0.0212
vn -0.9723 -0.2328 -0.0205
vn -0.9727 -0.2314 -0.0193
vn -0.9788 -0.2037 -0.0220
vn -0.9761 -0.2166 -0.0170
vn -0.9700 -0.2423 -0.0190
vn -0.9499 -0.3123 -0.0143
vn -0.9675 -0.2526 -0.0156
vn -0.9786 -0.2050 -0.0167
vn 0.9044 -0.4137 -0.1045
vn 0.8998 -0.4329 -0.0544
vn 0.8992 -0.4329 -0.0633
vn 0.8782 -0.4780 -0.0184
vn 0.8809 -0.4731 0.0151
vn 0.9048 -0.4242 -0.0365
vn 0.9026 -0.4299 -0.0225
vn 0.9050 -0.4246 -0.0269
vn 0.9082 -0.4176 -0.0290
vn 0.9054 -0.4234 -0.0306
vn 0.9332 -0.3593 -0.0084
vn 0.9334 -0.3588 -0.0052
vn 0.9559 -0.2932 -0.0158
vn 0.9552 -0.2952 -0.0199
vn 0.9747 -0.2234 -0.0003
vn 0.9763 -0.2164 -0.0090
vn 0.9699 -0.2414 -0.0326
vn 0.9776 -0.2102 -0.0057
vn 0.9681 -0.2476 -0.0379
vn 0.9556 -0.2884 -0.0604
vn 0.9808 -0.1949 0.0065
vn 0.9761 -0.2166 -0.0170
vn 0.9675 -0.2526 -0.0156
vn 0.9786 -0.2050 -0.0167
vn 0.9499 -0.3123 -0.0143
vn 0.9700 -0.2423 -0.0190
vn 0.9788 -0.2037 -0.0220
vn 0.9727 -0.2314 -0.0193
vn 0.9723 -0.2328 -0.0205
vn 0.9665 -0.2557 -0.0216
vn 0.9661 -0.2574 -0.0207
vn 0.9591 -0.2823 -0.0210
vn 0.9563 -0.2908 -0.0295
vn 0.9508 -0.3066 -0.0435
vn 0.9462 -0.3194 -0.0522
vn 0.9405 -0.3337 -0.0640
vn 0.9463 -0.3181 -0.0571
vn 0.9347 -0.3467 -0.0780
vn 0.9507 -0.3066 -0.0465
vn 0.9333 -0.3495 -0.0822
vn 0.9723 -0.2337 0.0068
vn 0.9312 -0.3526 -0.0926
vn -0.8951 -0.4427 -0.0520
vn -0.9230 -0.3740 -0.0900
vn -0.9228 -0.3755 -0.0868
vn -0.8982 -0.4386 -0.0291
vn -0.9346 -0.3463 -0.0815
vn -0.9170 -0.3965 -0.0436
vn -0.9228 -0.3844 -0.0270
vn -0.9036 -0.4279 -0.0222
vn -0.9188 -0.3880 -0.0723
vn -0.8789 -0.4769 -0.0121
vn -0.9836 -0.1800 0.0099
vn -0.9796 -0.2010 0.0014
vn -0.9994 -0.0066 0.0338
vn -0.9940 0.0997 0.0460
vn -0.9743 -0.2253 -0.0085
vn -0.9897 -0.1416 -0.0193
vn -0.9645 -0.2623 -0.0313
vn -0.9947 -0.0799 -0.0651
vn -0.9748 -0.2157 -0.0561
vn -0.9549 -0.2913 -0.0575
vn -0.9546 -0.2895 -0.0707
vn -0.9486 -0.3065 -0.0783
vn -0.9483 -0.3037 -0.0922
vn -0.9422 -0.3204 -0.0981
vn -0.9415 -0.3203 -0.1048
vn -0.9365 -0.3355 -0.1022
vn -0.9369 -0.3345 -0.1015
vn -0.9226 -0.3758 -0.0874
vt 0.555344 0.092468
vt 0.527206 0.000214
vt 0.524673 0.092468
vt 0.521957 0.000214
vt 0.509705 0.092468
vt 0.503342 0.000214
vt 0.494888 0.092468
vt 0.481171 0.092468
vt 0.465469 0.000214
vt 0.468124 0.092468
vt 0.997787 0.000214
vt 0.943649 0.092468
vt 0.999222 0.092468
vt 0.971832 0.000214
vt 0.942764 0.000214
vt 0.907410 0.000214
vt 0.895355 0.092468
vt 0.882309 0.000214
vt 0.863724 0.000214
vt 0.819458 0.092468
vt 0.793533 0.000214
vt 0.743530 0.092468
vt 0.723358 0.000214
vt 0.676285 0.092468
vt 0.660355 0.000214
vt 0.609055 0.092468
vt 0.597260 0.000214
vt 0.551224 0.000214
vt 0.588287 0.394714
vt 0.639343 0.399536
vt 0.588287 0.399536
vt 0.639343 0.395126
vt 0.639343 0.390854
vt 0.588287 0.389160
vt 0.639343 0.384842
vt 0.588287 0.382523
vt 0.639343 0.378677
vt 0.588287 0.375778
vt 0.588287 0.313690
vt 0.639343 0.310043
vt 0.639343 0.237488
vt 0.588287 0.255005
vt 0.588287 0.205231
vt 0.639343 0.167801
vt 0.588287 0.166412
vt 0.588287 0.160507
vt 0.639343 0.162292
vt 0.639343 0.157806
vt 0.588287 0.157806
vt 0.997620 -0.907303
vt 0.983063 -0.997360
vt 0.997467 -0.997360
vt 0.992462 -0.907303
vt 0.961090 -0.997360
vt 0.978043 -0.907303
vt 0.914932 -0.907303
vt 0.851822 -0.907303
vt 0.872192 -0.997360
vt 0.764221 -0.997360
vt 0.767014 -0.907303
vt 0.656464 -0.997360
vt 0.682343 -0.907303
vt 0.585510 -0.997360
vt 0.623322 -0.907303
vt 0.498260 -0.997360
vt 0.537216 -0.907303
vt 0.491028 -0.997360
vt 0.481735 -0.997360
vt 0.467850 -0.997360
vt 0.468155 -0.907303
s 1
usemtl bobcat_ng_dash
f 93/1/1 41/2/2 92/3/3
f 42/4/4 92/3/3 41/2/2
f 91/5/5 92/3/3 42/4/4
f 43/6/6 91/5/5 42/4/4
f 90/7/7 91/5/5 43/6/6
f 43/6/6 89/8/8 90/7/7
f 89/8/8 43/6/6 55/9/9
f 88/10/10 89/8/8 55/9/9
f 67/11/11 99/12/12 100/13/13
f 66/14/14 99/12/12 67/11/11
f 65/15/15 99/12/12 66/14/14
f 64/16/16 99/12/12 65/15/15
f 64/16/16 98/17/17 99/12/12
f 68/18/18 98/17/17 64/16/16
f 35/19/19 98/17/17 68/18/18
f 35/19/19 97/20/20 98/17/17
f 97/20/20 35/19/19 36/21/21
f 36/21/21 96/22/22 97/20/20
f 96/22/22 36/21/21 37/23/23
f 37/23/23 95/24/24 96/22/22
f 95/24/24 37/23/23 38/25/25
f 38/25/25 94/26/26 95/24/24
f 94/26/26 38/25/25 39/27/27
f 40/28/28 94/26/26 39/27/27
f 94/26/26 40/28/28 93/1/1
f 41/2/2 93/1/1 40/28/28
f 120/29/29 27/30/30 119/31/31
f 27/30/30 120/29/29 26/32/32
f 120/29/29 25/33/33 26/32/32
f 25/33/33 120/29/29 121/34/34
f 121/34/34 24/35/35 25/33/33
f 24/35/35 121/34/34 122/36/36
f 122/36/36 23/37/37 24/35/35
f 23/37/37 122/36/36 123/38/38
f 106/39/39 23/37/37 123/38/38
f 23/37/37 106/39/39 22/40/40
f 106/39/39 21/41/41 22/40/40
f 21/41/41 106/39/39 107/42/42
f 107/42/42 108/43/43 21/41/41
f 21/41/41 108/43/43 20/44/44
f 20/44/44 108/43/43 109/45/45
f 110/46/46 20/44/44 109/45/45
f 20/44/44 110/46/46 19/47/47
f 19/47/47 110/46/46 18/48/48
f 18/48/48 110/46/46 111/49/49
f 111/50/50 17/51/51 18/52/52
f 17/51/51 111/50/50 112/53/53
f 112/53/53 16/54/54 17/51/51
f 16/54/54 112/53/53 113/55/55
f 114/56/56 16/54/54 113/55/55
f 115/57/57 16/54/54 114/56/56
f 16/54/54 115/57/57 34/58/58
f 115/57/57 33/59/59 34/58/58
f 33/59/59 115/57/57 103/60/60
f 103/60/60 32/61/61 33/59/59
f 32/61/61 103/60/60 102/62/62
f 102/62/62 31/63/63 32/61/61
f 31/63/63 102/62/62 104/64/64
f 104/64/64 30/65/65 31/63/63
f 30/65/65 104/64/64 105/66/66
f 30/65/65 105/66/66 29/67/67
f 105/66/66 28/68/68 29/67/67
f 105/66/66 10/69/69 28/68/68
f 10/69/69 105/66/66 101/70/70
f 55/30/71 87/29/72 88/31/73
f 87/29/72 55/30/71 56/32/74
f 57/33/75 87/29/72 56/32/74
f 87/29/72 57/33/75 86/34/76
f 58/35/77 86/34/76 57/33/75
f 86/34/76 58/35/77 85/36/78
f 59/37/79 85/36/78 58/35/77
f 85/36/78 59/37/79 84/38/80
f 59/37/79 83/39/81 84/38/80
f 83/39/81 59/37/79 60/40/82
f 61/41/83 83/39/81 60/40/82
f 83/39/81 61/41/83 82/42/84
f 61/41/83 81/43/85 82/42/84
f 62/44/86 81/43/85 61/41/83
f 80/45/87 81/43/85 62/44/86
f 62/44/86 79/46/88 80/45/87
f 79/46/88 62/44/86 63/47/89
f 45/48/90 79/46/88 63/47/89
f 78/49/91 79/46/88 45/48/90
f 70/66/92 54/69/93 69/70/94
f 54/69/93 70/66/92 53/68/95
f 52/67/96 53/68/95 70/66/92
f 52/67/96 70/66/92 51/65/97
f 71/64/98 51/65/97 70/66/92
f 51/65/97 71/64/98 50/63/99
f 72/62/100 50/63/99 71/64/98
f 50/63/99 72/62/100 49/61/101
f 73/60/102 49/61/101 72/62/100
f 49/61/101 73/60/102 48/59/103
f 74/57/104 48/59/103 73/60/102
f 48/59/103 74/57/104 47/58/105
f 74/57/104 46/54/106 47/58/105
f 46/54/106 74/57/104 75/56/107
f 76/55/108 46/54/106 75/56/107
f 77/53/109 46/54/106 76/55/108
f 46/54/106 77/53/109 44/51/110
f 78/50/111 44/51/110 77/53/109
f 44/51/110 78/50/111 45/52/112
f 7/2/113 131/1/114 132/3/115
f 7/2/113 132/3/115 8/4/116
f 8/4/116 132/3/115 116/5/117
f 8/4/116 116/5/117 9/6/118
f 9/6/118 116/5/117 117/7/119
f 118/8/120 9/6/118 117/7/119
f 9/6/118 118/8/120 27/9/121
f 27/9/121 118/8/120 119/10/122
f 124/13/123 125/12/124 14/11/125
f 14/11/125 125/12/124 13/14/126
f 13/14/126 125/12/124 12/15/127
f 12/15/127 125/12/124 11/16/128
f 125/12/124 126/17/129 11/16/128
f 11/16/128 126/17/129 15/18/130
f 15/18/130 126/17/129 1/19/131
f 127/20/132 1/19/131 126/17/129
f 1/19/131 127/20/132 2/21/133
f 128/22/134 2/21/133 127/20/132
f 2/21/133 128/22/134 3/23/135
f 129/24/136 3/23/135 128/22/134
f 3/23/135 129/24/136 4/25/137
f 130/26/138 4/25/137 129/24/136
f 4/25/137 130/26/138 5/27/139
f 130/26/138 6/28/140 5/27/139
f 6/28/140 130/26/138 131/1/114
f 131/1/114 7/2/113 6/28/140
