# Blender 5.0.1
# www.blender.org
mtllib bodyshell.002.mtl
o bodyshell.002
v -25.815161 20.995878 -65.899582
v -25.815157 20.933895 -57.059509
v -25.815166 21.047964 -78.933891
v -25.815172 21.037506 -92.083076
v -25.815172 20.151793 -92.305779
v -25.815153 20.892080 -48.200638
v -25.815145 20.809994 -31.555979
v -25.756647 20.745413 -19.438189
v 25.815107 20.933895 -57.059532
v 25.815111 20.892078 -48.200661
v 25.815104 20.995878 -65.899597
v 25.815098 21.047962 -78.933907
v 25.815092 21.037506 -92.083092
v 25.815092 20.151793 -92.305794
v 25.815119 20.809994 -31.556002
v 25.756632 20.745413 -19.438211
v -12.244648 20.745413 -19.438196
v -0.000009 20.745413 -19.438200
v 12.244631 20.745413 -19.438204
v -12.244679 20.151793 -92.305779
v 12.244599 20.151793 -92.305794
v -0.000040 20.151793 -92.305786
v 12.244599 21.037506 -92.083092
v -12.244679 21.037506 -92.083076
v -0.000040 21.037506 -92.083084
v 12.244605 21.047962 -78.933907
v 12.244611 20.991116 -66.035995
v 12.244615 20.951340 -57.118664
v 12.244618 20.892759 -48.181168
v 12.244626 20.809994 -31.555994
v -0.000013 20.809994 -31.555990
v -0.000034 21.047962 -78.933899
v -0.000029 20.995878 -65.899590
v -0.000024 20.933895 -57.059521
v -0.000021 20.892078 -48.200649
v -12.244653 20.809994 -31.555986
v -12.244660 20.892759 -48.181160
v -12.244664 20.951340 -57.118656
v -12.244668 20.991116 -66.035980
v -12.244674 21.047964 -78.933891
vn -0.0000 0.2438 -0.9698
vn -0.0000 0.7884 -0.6152
vn -0.0000 1.0000 0.0016
vn -0.0000 0.2439 -0.9698
vn -0.0001 1.0000 0.0018
vn -0.0003 1.0000 0.0056
vn 0.0002 1.0000 0.0046
vn 0.0007 1.0000 0.0054
vn -0.0000 1.0000 0.0056
vn 0.0004 1.0000 0.0052
vn -0.0002 1.0000 0.0056
vn -0.0000 1.0000 0.0051
vn -0.0000 1.0000 0.0053
vn -0.0000 1.0000 0.0017
vn -0.0000 1.0000 0.0050
vn -0.0000 1.0000 0.0062
vn -0.0000 1.0000 0.0048
vn 0.0002 1.0000 0.0056
vn -0.0002 1.0000 0.0046
vn 0.0001 1.0000 0.0018
vn -0.0004 1.0000 0.0052
vn -0.0007 1.0000 0.0054
vn 0.0003 1.0000 0.0056
vt 0.990356 0.263489
vt 0.942123 0.003006
vt 0.990356 0.003006
vt 0.990356 0.498611
vt 0.942123 0.263489
vt 0.808167 0.003006
vt 0.942123 0.994217
vt 0.990356 0.733749
vt 0.990356 0.994217
vt 0.942123 0.733749
vt 0.942123 0.498611
vt 0.808167 0.263489
vt 0.631302 0.003006
vt 0.633026 0.263489
vt 0.511063 0.003006
vt 0.511841 0.263489
vt 0.390823 0.003006
vt 0.390671 0.263489
vt 0.164902 0.003006
vt 0.164902 0.263489
vt 0.000214 0.004028
vt 0.000214 0.263489
vt 0.164902 0.498611
vt 0.808167 0.498611
vt 0.631302 0.498611
vt 0.511063 0.498611
vt 0.390823 0.498611
vt 0.164902 0.733749
vt 0.390671 0.733749
vt 0.511841 0.733749
vt 0.633026 0.733749
vt 0.808167 0.733749
vt 0.000214 0.498611
vt 0.000214 0.733749
vt 0.000214 0.993210
vt 0.164902 0.994217
vt 0.390823 0.994217
vt 0.511063 0.994217
vt 0.631302 0.994217
vt 0.808167 0.994217
s 1
usemtl slamvan_bed_d
f 21/1/1 13/2/2 14/3/1
f 22/4/1 23/5/2 21/1/1
f 13/2/2 21/1/1 23/5/2
f 23/5/2 12/6/3 13/2/2
f 4/7/2 20/8/1 5/9/4
f 20/8/1 4/7/2 24/10/2
f 24/10/2 22/4/1 20/8/1
f 22/4/1 24/10/2 25/11/2
f 23/5/2 22/4/1 25/11/2
f 25/11/2 26/12/5 23/5/2
f 12/6/3 23/5/2 26/12/5
f 26/12/5 11/13/6 12/6/3
f 11/13/6 26/12/5 27/14/7
f 27/14/7 9/15/8 11/13/6
f 9/15/8 27/14/7 28/16/9
f 28/16/9 10/17/10 9/15/8
f 10/17/10 28/16/9 29/18/11
f 29/18/11 15/19/12 10/17/10
f 15/19/12 29/18/11 30/20/12
f 30/20/12 16/21/13 15/19/12
f 16/21/13 30/20/12 19/22/13
f 31/23/12 19/22/13 30/20/12
f 26/12/5 25/11/2 32/24/14
f 32/24/14 27/14/7 26/12/5
f 27/14/7 32/24/14 33/25/15
f 33/25/15 28/16/9 27/14/7
f 28/16/9 33/25/15 34/26/16
f 34/26/16 29/18/11 28/16/9
f 29/18/11 34/26/16 35/27/17
f 35/27/17 30/20/12 29/18/11
f 30/20/12 35/27/17 31/23/12
f 35/27/17 36/28/12 31/23/12
f 36/28/12 35/27/17 37/29/18
f 34/26/16 37/29/18 35/27/17
f 37/29/18 34/26/16 38/30/9
f 33/25/15 38/30/9 34/26/16
f 38/30/9 33/25/15 39/31/19
f 32/24/14 39/31/19 33/25/15
f 39/31/19 32/24/14 40/32/20
f 25/11/2 40/32/20 32/24/14
f 40/32/20 25/11/2 24/10/2
f 19/22/13 31/23/12 18/33/13
f 31/23/12 17/34/13 18/33/13
f 17/34/13 31/23/12 36/28/12
f 36/28/12 8/35/13 17/34/13
f 8/35/13 36/28/12 7/36/12
f 37/29/18 7/36/12 36/28/12
f 7/36/12 37/29/18 6/37/21
f 38/30/9 6/37/21 37/29/18
f 6/37/21 38/30/9 2/38/22
f 39/31/19 2/38/22 38/30/9
f 2/38/22 39/31/19 1/39/23
f 40/32/20 1/39/23 39/31/19
f 1/39/23 40/32/20 3/40/3
f 24/10/2 3/40/3 40/32/20
f 3/40/3 24/10/2 4/7/2
