# Blender 5.0.1
# www.blender.org
mtllib bodyshell.mtl
o bodyshell
v -31.527960 17.100945 86.738358
v -29.383198 17.998657 86.746033
v -33.711716 17.998657 86.746033
v 31.528034 17.100943 86.738327
v 33.711792 17.998657 86.746002
v 30.202181 18.820038 87.361145
v 28.700848 18.974316 86.750961
v 29.383274 17.998657 86.746017
v 29.792727 19.424782 87.359535
v 31.528034 20.166609 87.372650
v 32.873383 21.513180 87.384155
v 32.268951 21.903580 87.390030
v 33.282837 20.908436 87.385757
v 33.438820 20.166609 87.372650
v 33.282837 19.424782 87.359535
v 32.873383 18.839521 87.360458
v 32.268951 18.429634 87.355255
v 31.528034 18.273750 87.360703
v 30.787115 18.429634 87.355255
v 30.338665 17.335453 86.749649
v 32.736900 17.335453 86.749649
v 34.374718 18.974316 86.750954
v 34.608692 20.165001 86.767899
v 34.374718 21.355686 86.784851
v 33.711792 22.332024 86.809280
v 32.736900 22.995228 86.805634
v 31.528034 23.229740 86.816956
v 31.528034 22.060150 87.404068
v 30.338665 22.995228 86.805634
v 30.787115 21.903580 87.390030
v 29.363773 22.332026 86.809296
v 30.202181 21.513180 87.384155
v 28.700848 21.355686 86.784851
v 29.792727 20.908436 87.385757
v 28.466873 20.165001 86.767914
v 29.636744 20.166609 87.372650
v -31.527960 20.166609 87.372681
v -32.873310 18.820038 87.361176
v -32.268879 18.429636 87.355286
v -30.202106 18.839523 87.360489
v -29.792652 19.424784 87.359566
v -30.787043 18.429636 87.355286
v -31.527960 18.273750 87.360733
v -32.736824 17.335453 86.749680
v -32.268879 21.903582 87.390060
v -32.736824 22.995228 86.805664
v -33.711716 22.332026 86.809311
v -32.873310 21.513182 87.384186
v -34.374645 21.355686 86.784882
v -33.282764 20.908436 87.385788
v -34.608616 20.165001 86.767929
v -33.438747 20.166609 87.372681
v -34.374645 18.974316 86.750984
v -33.282764 19.424784 87.359566
v -31.527960 22.060148 87.404099
v -30.787043 21.903582 87.390060
v -30.202106 21.513182 87.384186
v -29.792652 20.908436 87.385788
v -29.636669 20.166609 87.372681
v -30.338593 17.335453 86.749680
v -28.700773 18.974316 86.750977
v -28.466799 20.165001 86.767929
v -28.700773 21.355686 86.784866
v -29.363701 22.332026 86.809311
v -30.338593 22.995228 86.805664
v -31.527960 23.229740 86.816986
vn -0.2253 -0.1541 0.9620
vn -0.3862 -0.2695 0.8822
vn -0.3861 -0.2746 0.8806
vn -0.2255 -0.1501 0.9626
vn -0.0067 -0.0019 1.0000
vn 0.1769 0.1776 0.9681
vn 0.1043 0.2269 0.9683
vn 0.2380 0.0901 0.9671
vn 0.2648 -0.0172 0.9641
vn 0.2435 -0.1130 0.9633
vn 0.1840 -0.1906 0.9643
vn 0.1052 -0.2438 0.9641
vn -0.0036 -0.2706 0.9627
vn -0.1005 -0.2483 0.9635
vn -0.1481 -0.2276 0.9624
vn -0.2725 -0.3878 0.8806
vn -0.1736 -0.4247 0.8885
vn -0.0034 -0.4653 0.8851
vn 0.1763 -0.4219 0.8894
vn 0.3226 -0.3251 0.8890
vn 0.4192 -0.1842 0.8890
vn 0.4576 -0.0143 0.8890
vn 0.4254 0.1601 0.8907
vn 0.3182 0.3094 0.8961
vn 0.1727 0.4064 0.8972
vn 0.0016 0.4459 0.8951
vn 0.0023 0.2495 0.9684
vn -0.1764 0.4099 0.8949
vn -0.1080 0.2249 0.9684
vn -0.3190 0.3051 0.8973
vn -0.1818 0.1750 0.9676
vn -0.4210 0.1607 0.8927
vn -0.2397 0.0937 0.9663
vn -0.4586 -0.0126 0.8885
vn -0.2641 -0.0152 0.9644
vn -0.4540 -0.1049 0.8848
vn -0.2581 -0.0713 0.9635
vn -0.0066 -0.0019 1.0000
vn -0.1461 -0.2304 0.9621
vn -0.0970 -0.2474 0.9640
vn 0.1856 -0.1899 0.9641
vn 0.1082 -0.2448 0.9635
vn -0.0033 -0.2708 0.9626
vn -0.0024 -0.4651 0.8853
vn -0.1709 -0.4239 0.8894
vn -0.2672 -0.3879 0.8821
vn -0.1060 0.2240 0.9688
vn -0.1757 0.4079 0.8959
vn -0.3176 0.3050 0.8978
vn -0.1809 0.1773 0.9674
vn -0.2578 -0.0712 0.9636
vn 0.0026 0.2493 0.9684
vn 0.1078 0.2278 0.9677
vn 0.1777 0.1767 0.9681
vn 0.1786 -0.4232 0.8883
vn 0.3252 -0.3290 0.8866
vn 0.4194 -0.1864 0.8885
vn 0.1740 0.4071 0.8966
vn 0.0027 0.4462 0.8949
vn -0.2241 -0.1512 0.9627
vn -0.3863 -0.2644 0.8837
vn -0.3863 -0.2669 0.8829
vn -0.2257 -0.1503 0.9625
vt 0.798508 0.370010
vt 0.949997 0.385406
vt 0.882111 0.284866
vt 0.840378 0.432022
vt 0.663879 0.507095
vt 0.528412 0.643600
vt 0.589142 0.684952
vt 0.487503 0.582382
vt 0.472443 0.507126
vt 0.487503 0.431885
vt 0.528412 0.370667
vt 0.589142 0.329315
vt 0.663940 0.314041
vt 0.738708 0.329300
vt 0.785187 0.218887
vt 0.663971 0.194153
vt 0.542740 0.218887
vt 0.444290 0.285934
vt 0.377975 0.385162
vt 0.353546 0.507141
vt 0.377975 0.629135
vt 0.444290 0.728363
vt 0.542740 0.795410
vt 0.663971 0.820145
vt 0.663925 0.700211
vt 0.785187 0.795410
vt 0.738708 0.684952
vt 0.883621 0.728394
vt 0.799438 0.643616
vt 0.949951 0.629150
vt 0.840347 0.582397
vt 0.974396 0.507141
vt 0.855423 0.507126
s 1
usemtl slamvan_lights_glass
f 6/1/1 7/2/2 8/3/3
f 7/2/2 6/1/1 9/4/4
f 10/5/5 9/4/4 6/1/1
f 10/5/5 11/6/6 12/7/7
f 10/5/5 13/8/8 11/6/6
f 10/5/5 14/9/9 13/8/8
f 10/5/5 15/10/10 14/9/9
f 10/5/5 16/11/11 15/10/10
f 10/5/5 17/12/12 16/11/11
f 10/5/5 18/13/13 17/12/12
f 10/5/5 19/14/14 18/13/13
f 10/5/5 6/1/15 19/14/14
f 6/1/15 8/3/16 20/15/17
f 20/15/17 19/14/14 6/1/15
f 19/14/14 20/15/17 4/16/18
f 4/16/18 18/13/13 19/14/14
f 18/13/13 4/16/18 21/17/19
f 21/17/19 17/12/12 18/13/13
f 17/12/12 21/17/19 5/18/20
f 5/18/20 16/11/11 17/12/12
f 16/11/11 5/18/20 22/19/21
f 22/19/21 15/10/10 16/11/11
f 15/10/10 22/19/21 23/20/22
f 23/20/22 14/9/9 15/10/10
f 14/9/9 23/20/22 24/21/23
f 24/21/23 13/8/8 14/9/9
f 13/8/8 24/21/23 25/22/24
f 25/22/24 11/6/6 13/8/8
f 11/6/6 25/22/24 26/23/25
f 26/23/25 12/7/7 11/6/6
f 12/7/7 26/23/25 27/24/26
f 27/24/26 28/25/27 12/7/7
f 28/25/27 27/24/26 29/26/28
f 29/26/28 30/27/29 28/25/27
f 30/27/29 29/26/28 31/28/30
f 31/28/30 32/29/31 30/27/29
f 32/29/31 31/28/30 33/30/32
f 33/30/32 34/31/33 32/29/31
f 34/31/33 33/30/32 35/32/34
f 35/32/34 36/33/35 34/31/33
f 36/33/35 35/32/34 7/2/36
f 7/2/36 9/4/37 36/33/35
f 10/5/5 36/33/35 9/4/37
f 10/5/5 34/31/33 36/33/35
f 10/5/5 32/29/31 34/31/33
f 10/5/5 30/27/29 32/29/31
f 10/5/5 28/25/27 30/27/29
f 10/5/5 12/7/7 28/25/27
f 37/5/38 38/1/39 39/14/40
f 37/5/38 40/11/41 41/10/10
f 37/5/38 42/12/42 40/11/41
f 37/5/38 43/13/43 42/12/42
f 37/5/38 39/14/40 43/13/43
f 1/16/44 43/13/43 39/14/40
f 39/14/40 44/15/45 1/16/44
f 44/15/45 39/14/40 38/1/39
f 38/1/39 3/3/46 44/15/45
f 45/27/47 46/26/48 47/28/49
f 47/28/49 48/29/50 45/27/47
f 48/29/50 47/28/49 49/30/32
f 49/30/32 50/31/33 48/29/50
f 50/31/33 49/30/32 51/32/34
f 51/32/34 52/33/35 50/31/33
f 52/33/35 51/32/34 53/2/36
f 53/2/36 54/4/51 52/33/35
f 37/5/38 52/33/35 54/4/51
f 37/5/38 50/31/33 52/33/35
f 37/5/38 48/29/50 50/31/33
f 37/5/38 45/27/47 48/29/50
f 37/5/38 55/25/52 45/27/47
f 37/5/38 56/7/53 55/25/52
f 37/5/38 57/6/54 56/7/53
f 37/5/38 58/8/8 57/6/54
f 37/5/38 59/9/9 58/8/8
f 37/5/38 41/10/10 59/9/9
f 43/13/43 1/16/44 60/17/55
f 60/17/55 42/12/42 43/13/43
f 42/12/42 60/17/55 2/18/56
f 2/18/56 40/11/41 42/12/42
f 40/11/41 2/18/56 61/19/57
f 61/19/57 41/10/10 40/11/41
f 41/10/10 61/19/57 62/20/22
f 62/20/22 59/9/9 41/10/10
f 59/9/9 62/20/22 63/21/23
f 63/21/23 58/8/8 59/9/9
f 58/8/8 63/21/23 64/22/24
f 64/22/24 57/6/54 58/8/8
f 57/6/54 64/22/24 65/23/58
f 65/23/58 56/7/53 57/6/54
f 56/7/53 65/23/58 66/24/59
f 66/24/59 55/25/52 56/7/53
f 55/25/52 66/24/59 46/26/48
f 46/26/48 45/27/47 55/25/52
f 38/1/60 53/2/61 3/3/62
f 53/2/61 38/1/60 54/4/63
f 37/5/5 54/4/63 38/1/60
