# Blender 5.0.1
# www.blender.org
mtllib bodyshell.005.mtl
o bodyshell.005
v 26.770538 60.620735 22.949120
v 30.709095 47.241432 13.017654
v 30.592110 47.245083 19.826418
v 30.748087 47.271187 2.695974
v 30.767580 47.292465 -3.957583
v 30.455629 47.315849 27.998520
v 30.533619 47.309105 23.335932
v 30.592112 47.305397 20.994896
v 26.517065 61.500515 21.884382
v -26.770515 60.620735 22.949142
v -30.767584 47.292465 -3.957558
v -26.517042 61.500515 21.884405
v -30.709084 47.241432 13.017681
v -30.592094 47.245083 19.826445
v -30.748083 47.271187 2.696000
v -30.455603 47.315849 27.998547
v -30.533596 47.309109 23.335958
v -30.592093 47.305397 20.994923
v -31.469507 44.443428 -10.120688
v -31.040537 44.433723 33.737499
v 31.469500 44.443428 -10.120715
v 31.040567 44.433723 33.737476
v -31.644987 44.640766 -4.469758
v -31.566994 44.655922 0.992432
v -31.547489 44.679428 11.721958
v -31.527987 44.711105 22.685314
v -31.372002 44.715805 27.289442
v 31.644983 44.640762 -4.469786
v 31.566994 44.655922 0.992406
v 31.547501 44.679428 11.721931
v 31.528009 44.711105 22.685287
v 31.372028 44.715805 27.289415
vn 0.9606 -0.2776 0.0136
vn 0.9614 -0.2752 0.0021
vn 0.9605 -0.2778 0.0143
vn 0.9614 -0.2751 0.0016
vn 0.9462 -0.3209 0.0406
vn 0.9500 -0.3123 0.0077
vn 0.9482 -0.3171 0.0173
vn 0.9539 -0.3000 -0.0052
vn 0.9551 -0.2963 -0.0042
vn 0.9523 -0.3050 -0.0110
vn 0.9499 -0.3126 -0.0049
vn 0.9410 -0.3383 0.0022
vn 0.9383 -0.3455 -0.0133
vn 0.9414 -0.3372 0.0038
vn 0.9353 -0.3534 -0.0184
vn 0.9444 -0.3259 -0.0444
vn 0.9460 -0.3212 -0.0447
vn 0.9465 -0.3166 -0.0625
vn -0.9614 -0.2752 0.0021
vn -0.9606 -0.2776 0.0136
vn -0.9605 -0.2778 0.0143
vn -0.9614 -0.2751 0.0016
vn -0.9482 -0.3171 0.0173
vn -0.9500 -0.3123 0.0077
vn -0.9462 -0.3209 0.0406
vn -0.9539 -0.3000 -0.0052
vn -0.9551 -0.2963 -0.0042
vn -0.9523 -0.3050 -0.0110
vn -0.9499 -0.3126 -0.0049
vn -0.9410 -0.3383 0.0022
vn -0.9383 -0.3455 -0.0133
vn -0.9414 -0.3372 0.0038
vn -0.9353 -0.3534 -0.0184
vn -0.9444 -0.3259 -0.0444
vn -0.9460 -0.3212 -0.0447
vn -0.9465 -0.3166 -0.0625
vt 0.594940 0.355194
vt 0.273163 0.332321
vt 0.594940 0.332321
vt 0.273163 0.355194
vt 0.243317 0.285812
vt 0.287750 0.314743
vt 0.285721 0.285797
vt 0.335403 0.285751
vt 0.335861 0.316055
vt 0.435822 0.316116
vt 0.435822 0.285797
vt 0.538025 0.316193
vt 0.538559 0.285843
vt 0.543777 0.316513
vt 0.555405 0.316727
vt 0.578461 0.317123
vt 0.583664 0.285721
vt 0.593140 0.285568
s 1
usemtl bobcat_ng_detail
f 14/1/1 10/2/2 18/3/3
f 10/2/2 14/1/1 12/4/4
f 19/5/5 11/6/6 23/7/7
f 23/7/7 11/6/6 24/8/8
f 24/8/8 11/6/6 15/9/9
f 13/10/10 24/8/8 15/9/9
f 24/8/8 13/10/10 25/11/11
f 14/12/12 25/11/11 13/10/10
f 25/11/11 14/12/12 26/13/13
f 18/14/14 26/13/13 14/12/12
f 17/15/15 26/13/13 18/14/14
f 17/15/15 16/16/16 26/13/13
f 26/13/13 16/16/16 27/17/17
f 27/17/17 16/16/16 20/18/18
f 1/2/19 3/1/20 8/3/21
f 3/1/20 1/2/19 9/4/22
f 28/7/23 5/6/24 21/5/25
f 29/8/26 5/6/24 28/7/23
f 4/9/27 5/6/24 29/8/26
f 29/8/26 2/10/28 4/9/27
f 2/10/28 29/8/26 30/11/29
f 30/11/29 3/12/30 2/10/28
f 3/12/30 30/11/29 31/13/31
f 3/12/30 31/13/31 8/14/32
f 8/14/32 31/13/31 7/15/33
f 31/13/31 6/16/34 7/15/33
f 32/17/35 6/16/34 31/13/31
f 22/18/36 6/16/34 32/17/35
