# Blender 5.0.1
# www.blender.org
mtllib chassis.mtl
o chassis
v -31.099030 30.617252 33.634689
v -31.040537 26.938923 33.333927
v -31.040539 10.584453 31.505342
v -31.040539 12.543255 31.729586
v -31.040537 16.246515 32.185555
v -31.040537 21.947548 32.864407
v 31.040567 30.539989 33.656876
v 31.040567 21.947548 32.864384
v 31.040567 26.938923 33.333904
v 31.040567 30.070286 33.614746
v 31.040565 12.543253 31.729559
v 31.040565 10.584452 31.505316
v 31.040567 16.246513 32.185532
v 30.163145 10.574239 -11.805903
v 3.958055 23.664967 -11.814307
v 5.225415 10.593724 -11.806573
v -4.016560 23.664967 -11.814303
v -30.163153 10.574240 -11.805878
v -5.205926 10.593724 -11.806569
v -29.753681 10.669881 31.716967
v -29.929171 10.579687 12.932256
v 29.753708 10.669880 31.716940
v 29.929182 10.579686 12.932232
v -27.647909 29.596252 45.181076
v -18.347443 29.512863 45.027908
v -3.451097 29.388466 44.817638
v 0.019517 29.388466 44.817638
v 3.490132 29.388466 44.817638
v 29.753714 29.399351 45.129402
v 29.890198 14.689122 41.780170
v 22.383526 40.723843 25.829023
v 22.520010 41.063950 26.070774
v 22.403023 40.617134 26.125395
v 22.247040 40.625053 25.793453
v 22.227545 41.305946 26.296438
v 22.188547 41.393852 26.020233
v 22.071562 41.327477 26.354218
v 20.862696 40.668354 26.474785
v 22.169050 41.041992 26.559282
v 22.305536 41.058754 26.480658
v 22.383528 40.781868 26.373270
v 22.286036 40.519707 26.128798
v 20.960184 40.286552 26.156454
v 20.804201 40.397346 25.976995
v 20.804203 40.448566 26.326384
v 20.706711 40.727245 25.926456
v 20.706713 40.778465 26.275845
v 20.765205 40.947037 26.074860
v 22.032564 41.432823 26.018873
v 22.227543 41.229118 25.772360
v 22.247042 40.705967 26.434450
v 22.305534 40.952232 25.664970
v 22.169048 40.911217 25.607874
v 20.862694 40.565914 25.776014
v 22.071560 41.246563 25.713223
v 5.225424 10.595770 12.834131
v 3.958072 24.907124 25.991169
v 5.186438 10.669881 31.716951
v 3.490126 29.399534 31.726229
v 5.069455 14.695928 41.975040
v 4.289543 21.897690 44.845108
v -4.952432 14.695928 41.975048
v -27.589417 21.897692 44.845119
v -4.211512 21.897690 44.845108
v -27.589417 14.695928 41.975056
v -4.913441 10.669881 31.716955
v -5.205916 10.595770 12.834135
v 21.974077 23.468939 42.351513
v 25.425194 19.253538 40.079510
v 21.974075 19.253538 40.079514
v 25.425196 23.468939 42.351509
v 10.938304 24.819841 43.045708
v 14.369921 18.137829 39.416130
v 10.938302 18.137829 39.416130
v 14.369923 24.819841 43.045708
v 16.397697 23.468939 42.351513
v 19.848812 19.253538 40.079514
v 16.397696 19.253538 40.079514
v 19.848814 23.468939 42.351513
v 29.890200 21.890886 44.650238
v 24.372313 16.584827 45.225719
v 21.077179 20.783897 47.030060
v 24.372314 20.783897 47.030060
v 21.077177 16.584827 45.225719
v 13.862979 15.473202 44.679253
v 10.567846 22.129356 47.568375
v 13.862980 22.129356 47.568375
v 10.567845 15.473202 44.679253
v 19.068901 16.584827 45.225719
v 15.773767 20.783897 47.030060
v 19.068903 20.783897 47.030060
v 15.773767 16.584827 45.225719
v -3.451102 29.399534 31.726229
v -4.016543 24.907124 25.991173
v 2.515233 30.273123 28.808281
v -0.857892 30.256607 29.452682
v -0.857892 30.273125 28.808283
v 2.515233 31.365700 28.809149
v 2.534731 30.810812 29.121172
v 2.515233 30.808525 28.496941
v 2.515233 31.349182 29.453547
v 2.515234 30.813780 29.764889
v -0.857892 31.349182 29.453548
v -0.857892 30.813780 29.764891
v 2.515233 30.256607 29.452681
v -0.857892 30.808525 28.496943
v -0.857892 31.365700 28.809151
v 2.417744 30.448065 29.348448
v 2.924688 30.492912 28.956686
v 2.924688 30.485676 29.308115
v 2.417744 30.452579 28.919075
v 2.924688 30.818050 28.769745
v 2.417744 30.816010 28.711287
v 2.924688 31.136631 28.953716
v 2.417744 31.174240 28.913385
v 2.924688 31.129393 29.305143
v 2.417744 31.169727 29.342756
v 2.924688 30.804253 29.492086
v 2.417744 30.806295 29.550547
v 20.979681 40.850288 26.097750
v 16.514679 39.593906 26.434269
v 20.999180 40.817436 26.274483
v 16.534176 39.479713 26.516296
v 21.038176 40.722733 26.355829
v 16.573172 39.321785 26.463282
v 21.077171 40.564804 26.302813
v 16.592670 39.218910 26.310797
v 21.096668 40.461929 26.150330
v 16.573170 39.291412 26.152189
v 21.077169 40.514942 25.992401
v 16.534174 39.424408 26.049994
v 21.038174 40.647942 25.890205
v 16.514677 39.544044 26.123856
v 20.999178 40.787067 25.963387
v 16.495178 39.626755 26.257536
v 0.448462 25.365137 28.491932
v -0.097477 30.876755 29.333477
v -0.097477 25.365137 28.491932
v 0.448463 30.876076 29.313992
v 0.175492 25.145781 27.797241
v 0.175493 30.961937 28.979328
vn 0.0007 0.9287 -0.3709
vn 0.7725 -0.4080 -0.4866
vn 0.9629 0.2684 -0.0282
vn 0.8085 -0.5825 0.0836
vn 0.3372 -0.7146 -0.6128
vn 0.5023 0.7606 0.4114
vn 0.4469 0.8852 -0.1295
vn -0.0069 0.8115 0.5843
vn -0.3977 0.0211 0.9173
vn 0.1821 0.1864 0.9655
vn 0.6414 0.2690 0.7185
vn 0.7669 -0.2984 0.5682
vn 0.4118 -0.9052 0.1054
vn -0.1406 -0.9842 0.1080
vn -0.5998 -0.7129 -0.3635
vn -0.5915 -0.5925 0.5468
vn -0.8501 0.1707 -0.4982
vn -0.8545 0.3057 0.4200
vn -0.6398 0.7609 -0.1079
vn -0.0720 0.9898 -0.1229
vn 0.5181 0.6185 -0.5907
vn 0.3318 -0.5530 0.7643
vn 0.6188 0.0665 -0.7827
vn 0.1542 -0.0923 -0.9837
vn -0.3867 -0.2462 -0.8887
vn 0.0035 0.6302 -0.7764
vn 0.9955 0.0947 -0.0010
vn 0.9959 0.0907 -0.0013
vn 0.9953 0.0965 -0.0000
vn 0.9960 0.0893 0.0051
vn 0.9960 0.0887 -0.0082
vn 0.9953 0.0966 -0.0019
vn 0.9951 0.0975 -0.0135
vn 0.9943 0.1069 0.0005
vn 0.9944 0.1061 0.0001
vn -0.0000 0.7003 -0.7139
vn -0.0000 0.3702 -0.9289
vn -0.0000 0.7265 -0.6872
vn -0.0002 0.9820 -0.1887
vn -0.0000 0.9845 -0.1757
vn -0.0004 1.0000 -0.0030
vn -0.0007 1.0000 -0.0020
vn -0.0008 1.0000 -0.0005
vn -0.0008 1.0000 -0.0001
vn -0.0000 0.4745 -0.8803
vn -0.0000 0.4744 -0.8803
vn -0.0000 0.4773 -0.8787
vn -0.0071 0.3701 -0.9290
vn -0.0070 0.3697 -0.9291
vn -0.0070 0.3695 -0.9292
vn -0.0072 0.3702 -0.9289
vn -0.0041 0.0517 -0.9987
vn 0.0085 0.0089 -0.9999
vn 0.0119 -0.0024 -0.9999
vn -0.0076 0.0635 -0.9980
vn 0.0008 1.0000 -0.0006
vn 0.0007 1.0000 -0.0002
vn -0.0034 1.0000 0.0006
vn 0.0008 1.0000 -0.0001
vn -0.0000 0.3948 -0.9188
vn -0.0000 0.3982 -0.9173
vn -0.0008 0.9819 -0.1895
vn -0.0000 0.9815 -0.1914
vn -0.0007 0.9293 -0.3694
vn -0.0026 0.9309 -0.3654
vn -0.9938 0.0099 -0.1105
vn -0.9942 -0.0073 -0.1069
vn -0.9945 0.0054 -0.1043
vn -0.9948 0.0128 -0.1009
vn -0.9945 0.0169 -0.1033
vn -0.9940 0.0274 -0.1059
vn -0.9931 0.0141 -0.1168
vn -0.9931 0.0137 -0.1166
vn -0.9931 0.0133 -0.1165
vn -0.0018 0.9310 -0.3650
vn 0.9427 0.1200 -0.3112
vn 0.9597 0.0230 -0.2800
vn 0.9596 0.0298 -0.2798
vn 0.9583 0.0384 -0.2830
vn 0.9590 0.0591 -0.2772
vn 0.9550 0.0472 -0.2930
vn 0.9427 0.1200 -0.3113
vn 0.9443 0.0395 -0.3266
vn 0.9445 0.0385 -0.3262
vn 0.9446 0.0373 -0.3260
vn -0.0000 1.0000 0.0008
vn -0.0000 0.9427 -0.3336
vn -0.0000 0.9432 -0.3323
vn -0.0000 0.9421 -0.3353
vn -0.0000 0.9426 -0.3339
vn -0.0000 0.9995 -0.0328
vn 0.6028 -0.6865 -0.4067
vn -0.6072 -0.6906 0.3929
vn -0.6121 -0.6804 -0.4031
vn 0.5982 0.6965 -0.3962
vn 1.0000 -0.0000 -0.0006
vn 0.6014 -0.0064 -0.7989
vn 0.6029 0.6864 0.4067
vn 0.6017 0.0064 0.7987
vn -0.6121 0.6804 0.4031
vn -0.6107 0.0063 0.7918
vn 0.5984 -0.6964 0.3962
vn -0.6107 -0.0063 -0.7918
vn -0.6073 0.6906 -0.3929
vn 0.1061 -0.8573 0.5038
vn 0.6499 -0.6578 -0.3808
vn 0.6461 -0.6682 0.3689
vn 0.1051 -0.8542 -0.5092
vn 0.6531 0.0022 -0.7573
vn 0.1170 -0.0021 -0.9931
vn 0.6461 0.6682 -0.3689
vn 0.1061 0.8573 -0.5038
vn 0.6499 0.6578 0.3808
vn 0.1051 0.8542 0.5092
vn 0.6531 -0.0022 0.7573
vn 0.1170 0.0021 0.9931
vn -0.9949 0.1010 0.0001
vn -0.9962 0.0871 0.0053
vn -0.9948 0.1017 0.0005
vn -0.9959 0.0881 -0.0195
vn -0.9973 0.0740 -0.0031
vn -0.9968 0.0769 0.0226
vn -0.9969 0.0792 0.0040
vn -0.9960 0.0888 -0.0023
vn -0.9959 0.0906 -0.0030
vn -0.2653 0.9556 -0.1283
vn -0.2004 0.8071 0.5554
vn -0.2062 0.8214 0.5317
vn -0.0012 0.1355 0.9908
vn -0.0125 0.1724 0.9850
vn 0.1868 -0.5739 0.7973
vn 0.1854 -0.5683 0.8017
vn 0.2678 -0.9600 0.0814
vn 0.2661 -0.9552 0.1293
vn 0.1840 -0.7527 -0.6321
vn 0.1907 -0.7798 -0.5963
vn -0.0177 -0.0651 -0.9977
vn -0.0117 -0.0927 -0.9956
vn -0.2088 0.6667 -0.7155
vn -0.2102 0.6738 -0.7084
vn -0.2667 0.9469 -0.1797
vn -0.0161 0.0435 -0.9989
vn -0.0058 0.0243 -0.9997
vn -0.0090 0.0350 -0.9993
vn -0.0100 0.0055 -0.9999
vn -0.0141 -0.0022 -0.9999
vn 0.9167 -0.0614 0.3947
vn -0.7469 0.4692 0.4712
vn -0.9219 -0.0400 0.3854
vn 0.7580 0.4795 0.4422
vn -0.0041 0.1759 -0.9844
vn -0.0167 0.7279 -0.6854
vt 0.408768 0.611465
vt 0.321442 0.627457
vt 0.410568 0.611099
vt 0.858566 0.988831
vt 0.862091 0.990601
vt 0.862381 0.989471
vt 0.858658 0.988144
vt 0.866211 0.987991
vt 0.861450 0.987915
vt 0.866150 0.987289
vt 0.867996 0.977234
vt 0.869736 0.987793
vt 0.868546 0.988876
vt 0.866638 0.988663
vt 0.862442 0.988510
vt 0.862564 0.977844
vt 0.860046 0.977493
vt 0.865173 0.977478
vt 0.859039 0.976776
vt 0.865128 0.976532
vt 0.861786 0.976379
vt 0.861359 0.986664
vt 0.857590 0.988190
vt 0.866547 0.987991
vt 0.855377 0.988831
vt 0.854202 0.987747
vt 0.856812 0.977112
vt 0.857666 0.987503
vt 0.630890 0.529785
vt 0.472137 0.463287
vt 0.615768 0.463287
vt 0.422226 0.529785
vt 0.357437 0.463287
vt 0.391190 0.557587
vt 0.305511 0.474609
vt 0.287872 0.518845
vt 0.310852 0.557587
vt 0.648804 0.548935
vt 0.781464 0.615250
vt 0.644485 0.615250
vt 0.781464 0.548935
vt 0.650253 0.505264
vt 0.794052 0.505295
vt 0.794907 0.408798
vt 0.650253 0.408798
vt 0.796280 0.300781
vt 0.650253 0.288010
vt 0.843399 0.906693
vt 0.806473 0.854233
vt 0.843399 0.854233
vt 0.806473 0.906693
vt 0.845749 0.995132
vt 0.804871 0.913940
vt 0.845749 0.913940
vt 0.804871 0.995132
vt 0.781982 0.615250
vt 0.649902 0.548935
vt 0.645294 0.615250
vt 0.781982 0.548935
vt 0.060837 0.673737
vt 0.300842 0.619110
vt 0.308105 0.674652
vt 0.059906 0.618103
vt 0.796753 0.288010
vt 0.650772 0.416748
vt 0.795425 0.416748
vt 0.650772 0.288010
vt 0.806580 0.854523
vt 0.843506 0.906982
vt 0.806580 0.906982
vt 0.843506 0.854523
vt 0.804962 0.914230
vt 0.845840 0.995422
vt 0.804962 0.995422
vt 0.845840 0.914230
vt 0.791931 0.505264
vt 0.647263 0.408798
vt 0.791931 0.408798
vt 0.648132 0.505295
vt 0.646774 0.548935
vt 0.792801 0.548935
vt 0.392242 0.688629
vt 0.292313 0.685959
vt 0.391968 0.690491
vt 0.394821 0.676208
vt 0.296509 0.656128
vt 0.398865 0.656326
vt 0.404770 0.633682
vt 0.408615 0.618881
vt 0.319717 0.627457
vt 0.408768 0.611481
vt 0.291870 0.686768
vt 0.392151 0.690872
vt 0.294769 0.656128
vt 0.310852 0.581741
vt 0.391190 0.605911
vt 0.310852 0.605911
vt 0.391190 0.557556
vt 0.455826 0.554214
vt 0.455826 0.609894
vt 0.630890 0.609894
vt 0.630890 0.554214
vt 0.310852 0.557556
vt 0.855698 0.796616
vt 0.912369 0.816116
vt 0.912369 0.796616
vt 0.855576 0.806366
vt 0.855698 0.786865
vt 0.855698 0.816116
vt 0.855698 0.825851
vt 0.912369 0.825851
vt 0.912369 0.786865
vt 0.846497 0.735123
vt 0.852707 0.764755
vt 0.846954 0.764755
vt 0.853165 0.735123
vt 0.855591 0.764755
vt 0.856491 0.735123
vt 0.844086 0.764755
vt 0.843170 0.735123
vt 0.862167 0.976501
vt 0.865143 0.939926
vt 0.864212 0.976669
vt 0.867188 0.940109
vt 0.866241 0.976852
vt 0.865402 0.940369
vt 0.864471 0.977127
vt 0.863632 0.940643
vt 0.862686 0.977386
vt 0.861542 0.940384
vt 0.860611 0.977142
vt 0.859467 0.940140
vt 0.858536 0.976883
vt 0.861282 0.939941
vt 0.860352 0.976700
vt 0.863113 0.939743
vt 0.694931 0.661179
vt 0.614532 0.662643
vt 0.692108 0.612717
vt 0.490265 0.617691
vt 0.485901 0.664993
vt 0.852570 0.927063
vt 0.876953 0.998825
vt 0.876953 0.927063
vt 0.852402 0.998825
vt 0.864716 0.926910
vt 0.864700 0.998795
s 1
usemtl bobcat_interior
f 22/1/1 30/2/1 12/3/1
f 31/4/2 32/5/3 33/6/4
f 33/6/4 34/7/5 31/4/2
f 35/8/6 32/5/3 36/9/7
f 36/9/7 37/10/8 35/8/6
f 37/10/8 38/11/9 39/12/10
f 39/12/10 35/8/6 37/10/8
f 35/8/6 39/12/10 40/13/11
f 32/5/3 35/8/6 40/13/11
f 41/14/12 32/5/3 40/13/11
f 32/5/3 41/14/12 33/6/4
f 41/14/12 42/15/13 33/6/4
f 34/7/5 33/6/4 42/15/13
f 43/16/14 34/7/5 42/15/13
f 34/7/5 43/16/14 44/17/15
f 45/18/16 44/17/15 43/16/14
f 45/18/16 46/19/17 44/17/15
f 46/19/17 45/18/16 47/20/18
f 46/19/17 47/20/18 48/21/19
f 37/10/8 48/21/19 47/20/18
f 48/21/19 37/10/8 49/22/20
f 37/10/8 36/9/7 49/22/20
f 50/23/21 49/22/20 36/9/7
f 43/16/14 51/24/22 45/18/16
f 51/24/22 43/16/14 42/15/13
f 42/15/13 41/14/12 51/24/22
f 40/13/11 51/24/22 41/14/12
f 51/24/22 40/13/11 39/12/10
f 38/11/9 51/24/22 39/12/10
f 51/24/22 38/11/9 45/18/16
f 47/20/18 45/18/16 38/11/9
f 38/11/9 37/10/8 47/20/18
f 32/5/3 50/23/21 36/9/7
f 50/23/21 32/5/3 52/25/23
f 32/5/3 31/4/2 52/25/23
f 31/4/2 53/26/24 52/25/23
f 53/26/24 31/4/2 34/7/5
f 34/7/5 54/27/25 53/26/24
f 54/27/25 34/7/5 44/17/15
f 44/17/15 46/19/17 54/27/25
f 55/28/26 54/27/25 46/19/17
f 48/21/19 55/28/26 46/19/17
f 55/28/26 48/21/19 49/22/20
f 49/22/20 50/23/21 55/28/26
f 52/25/23 55/28/26 50/23/21
f 55/28/26 52/25/23 53/26/24
f 54/27/25 55/28/26 53/26/24
f 15/29/27 56/30/28 16/31/29
f 56/30/28 15/29/27 57/32/30
f 57/32/30 58/33/31 56/30/28
f 58/33/31 57/32/30 59/34/32
f 58/33/31 59/34/32 60/35/33
f 60/35/33 59/34/32 61/36/34
f 61/36/34 59/34/32 28/37/35
f 62/38/36 63/39/37 64/40/37
f 63/39/37 62/38/36 65/41/38
f 66/42/39 65/41/38 62/38/36
f 65/41/38 66/42/39 20/43/40
f 66/42/39 21/44/41 20/43/40
f 21/44/41 66/42/39 67/45/42
f 67/45/42 18/46/43 21/44/41
f 18/46/43 67/45/42 19/47/44
f 68/48/45 69/49/45 70/50/46
f 69/49/45 68/48/45 71/51/45
f 72/52/47 73/53/47 74/54/47
f 73/53/47 72/52/47 75/55/47
f 76/48/45 77/49/45 78/50/45
f 77/49/45 76/48/45 79/51/45
f 80/56/48 60/57/49 61/58/50
f 60/57/49 80/56/48 30/59/51
f 29/60/52 61/61/53 28/62/54
f 61/61/53 29/60/52 80/63/55
f 14/64/56 56/65/57 23/66/58
f 56/65/57 14/64/56 16/67/59
f 81/68/60 82/69/60 83/70/60
f 82/69/60 81/68/60 84/71/60
f 85/72/61 86/73/61 87/74/61
f 86/73/61 85/72/61 88/75/61
f 89/68/60 90/69/60 91/70/60
f 90/69/60 89/68/60 92/71/60
f 58/76/62 23/77/58 56/78/57
f 23/77/58 58/76/62 22/79/63
f 58/76/62 30/80/64 22/79/63
f 30/80/64 58/76/62 60/81/65
f 10/82/66 29/83/67 7/84/66
f 9/85/68 29/83/67 10/82/66
f 80/86/69 29/83/67 9/85/68
f 8/87/70 80/86/69 9/85/68
f 30/2/71 80/86/69 8/87/70
f 13/88/72 30/2/71 8/87/70
f 11/89/73 30/2/71 13/88/72
f 11/89/73 12/3/74 30/2/71
f 3/3/75 65/90/76 20/91/75
f 24/92/77 2/85/78 1/93/79
f 2/85/78 24/92/77 63/94/80
f 63/94/80 6/87/81 2/85/78
f 6/87/81 63/94/80 65/90/82
f 65/90/82 5/88/83 6/87/81
f 65/90/82 4/89/84 5/88/83
f 65/90/82 3/3/85 4/89/84
f 27/95/86 93/96/87 26/97/86
f 27/95/86 59/98/88 93/96/87
f 57/99/89 93/96/87 59/98/88
f 93/96/87 57/99/89 94/100/90
f 57/99/89 17/101/91 94/100/90
f 17/101/91 57/99/89 15/102/91
f 59/98/88 27/95/86 28/103/86
f 95/104/92 96/105/93 97/106/94
f 98/104/95 99/107/96 100/108/97
f 101/109/98 99/107/96 98/104/95
f 102/110/99 99/107/96 101/109/98
f 103/105/100 102/110/99 101/109/98
f 102/110/99 103/105/100 104/111/101
f 104/111/101 103/105/100 96/105/93
f 105/109/102 104/111/101 96/105/93
f 96/105/93 95/104/92 105/109/102
f 95/104/92 99/107/96 105/109/102
f 100/108/97 99/107/96 95/104/92
f 97/106/94 100/108/97 95/104/92
f 100/108/97 97/106/94 106/112/103
f 96/105/93 106/112/103 97/106/94
f 96/105/93 103/105/100 106/112/103
f 106/112/103 103/105/100 107/106/104
f 101/109/98 107/106/104 103/105/100
f 107/106/104 101/109/98 98/104/95
f 98/104/95 106/112/103 107/106/104
f 106/112/103 98/104/95 100/108/97
f 104/111/101 105/109/102 102/110/99
f 105/109/102 99/107/96 102/110/99
f 108/113/105 109/114/106 110/115/107
f 109/114/106 108/113/105 111/116/108
f 111/116/108 112/117/109 109/114/106
f 112/117/109 111/116/108 113/118/110
f 113/118/110 114/114/111 112/117/109
f 114/114/111 113/118/110 115/116/112
f 115/116/112 116/115/113 114/114/111
f 116/115/113 115/116/112 117/113/114
f 117/113/114 118/119/115 116/115/113
f 118/119/115 117/113/114 119/120/116
f 119/120/116 110/115/107 118/119/115
f 110/115/107 119/120/116 108/113/105
f 110/115/107 109/114/106 118/119/115
f 118/119/115 109/114/106 116/115/113
f 116/115/113 109/114/106 114/114/111
f 114/114/111 109/114/106 112/117/109
f 26/37/117 93/34/118 64/36/119
f 64/36/119 93/34/118 62/35/120
f 62/35/120 93/34/118 66/33/121
f 94/32/122 66/33/121 93/34/118
f 66/33/121 94/32/122 67/30/123
f 94/32/122 19/31/124 67/30/123
f 19/31/124 94/32/122 17/29/125
f 120/121/126 121/122/127 122/123/128
f 123/124/129 122/123/128 121/122/127
f 122/123/128 123/124/129 124/125/130
f 125/126/131 124/125/130 123/124/129
f 124/125/130 125/126/131 126/127/132
f 127/128/133 126/127/132 125/126/131
f 126/127/132 127/128/133 128/129/134
f 129/130/135 128/129/134 127/128/133
f 128/129/134 129/130/135 130/131/136
f 131/132/137 130/131/136 129/130/135
f 130/131/136 131/132/137 132/133/138
f 133/134/139 132/133/138 131/132/137
f 132/133/138 133/134/139 134/135/140
f 135/136/141 134/135/140 133/134/139
f 134/135/140 135/136/141 120/121/126
f 121/122/127 120/121/126 135/136/141
f 24/137/142 25/138/143 63/139/144
f 63/139/144 25/138/143 64/140/145
f 64/140/145 25/138/143 26/141/146
f 136/142/147 137/143/148 138/144/149
f 137/143/148 136/142/147 139/145/150
f 140/146/151 139/145/150 136/142/147
f 139/145/150 140/146/151 141/147/152
f 138/144/149 141/147/152 140/146/151
f 141/147/152 138/144/149 137/143/148
f 141/147/152 137/143/148 139/145/150
