# Blender 5.0.1
# www.blender.org
mtllib rbump.002.mtl
o rbump.002
v -30.397167 14.297222 -96.822670
v -30.865116 15.077340 -96.830406
v -30.865116 15.994541 -96.823418
v -30.397167 16.774660 -96.831146
v -29.617254 17.223518 -96.827316
v -28.700855 17.223516 -96.827324
v -27.920942 16.774660 -96.831154
v -27.472492 15.994540 -96.823425
v -27.472492 15.077339 -96.830414
v -27.920942 14.297221 -96.822678
v -28.700855 13.828878 -96.825836
v -29.617254 13.828878 -96.825829
v -34.862171 14.297222 -96.822670
v -35.310623 15.077340 -96.830406
v -35.310623 15.994541 -96.823418
v -34.862171 16.774660 -96.831146
v -34.062759 17.223518 -96.827316
v -33.165859 17.223518 -96.827316
v -32.366447 16.774660 -96.831146
v -31.917999 15.994541 -96.823418
v -31.917999 15.077340 -96.830406
v -32.366447 14.297222 -96.822670
v -33.165859 13.828878 -96.825829
v -34.062759 13.828878 -96.825829
v 30.397081 16.774658 -96.831177
v 29.617168 17.223516 -96.827347
v 28.700769 17.223516 -96.827339
v 27.920856 16.774660 -96.831169
v 27.472406 15.994540 -96.823441
v 27.472406 15.077339 -96.830429
v 27.920856 14.297220 -96.822693
v 28.700769 13.828877 -96.825851
v 29.617168 13.828877 -96.825859
v 30.397081 14.297220 -96.822701
v 30.865030 15.077339 -96.830437
v 30.865030 15.994539 -96.823448
v 34.862087 16.774658 -96.831177
v 34.062675 17.223516 -96.827347
v 33.165775 17.223516 -96.827347
v 32.366364 16.774658 -96.831177
v 31.917913 15.994539 -96.823448
v 31.917913 15.077339 -96.830437
v 32.366364 14.297220 -96.822701
v 33.165775 13.828877 -96.825859
v 34.062675 13.828877 -96.825859
v 34.862087 14.297220 -96.822701
v 35.310535 15.077339 -96.830437
v 35.310535 15.994539 -96.823448
v -32.736908 15.307089 -96.955482
v -31.840008 15.526197 -96.826569
v -33.614311 15.538198 -97.041595
v -32.697910 15.541601 -96.944168
v -32.736908 15.775433 -96.952332
v -32.073982 16.423912 -96.818893
v -32.814899 15.989778 -96.959816
v -32.970882 16.165833 -96.946457
v -32.073982 14.648649 -96.815437
v -32.814899 15.073257 -96.947319
v -32.970882 14.897203 -96.960686
v -32.717411 14.004251 -96.831955
v -33.614311 13.750934 -96.823105
v -33.380337 14.663372 -96.952522
v -33.165859 14.741316 -96.955246
v -35.388615 15.526197 -96.826569
v -34.491714 15.307089 -96.955482
v -34.530708 15.541601 -96.944168
v -34.491714 15.775433 -96.952332
v -34.257740 14.897203 -96.960686
v -34.491714 14.004251 -96.831955
v -34.062759 14.741316 -96.955246
v -33.848286 14.663372 -96.952522
v -33.614311 14.624400 -96.951164
v -35.154640 14.648649 -96.815437
v -34.394222 15.073257 -96.947319
v -32.717411 17.067629 -96.821869
v -33.165859 16.321718 -96.951897
v -33.380337 16.399664 -96.954620
v -33.614311 17.301460 -96.830040
v -33.614311 16.438635 -96.955978
v -33.848286 16.399664 -96.954620
v -34.491714 17.067629 -96.821869
v -34.062759 16.321718 -96.951897
v -34.257740 16.165833 -96.946457
v -35.154640 16.423912 -96.818893
v -34.394222 15.989778 -96.959816
v 34.491627 14.004251 -96.831985
v 34.257652 14.897202 -96.960716
v 34.062675 14.741314 -96.955276
v 33.614223 15.538198 -97.041626
v 33.848198 14.643885 -96.951874
v 33.614223 13.750933 -96.823135
v 32.970795 14.897202 -96.960716
v 33.165775 14.741314 -96.955276
v 33.380249 14.643885 -96.951874
v 32.717323 14.004251 -96.831985
v 33.614223 14.624399 -96.951195
v 32.736820 15.307087 -96.955513
v 32.814812 15.073256 -96.947350
v 32.073895 14.648648 -96.815468
v 35.154552 16.423912 -96.818924
v 34.257652 16.185318 -96.947166
v 34.394138 15.989777 -96.959846
v 34.491627 15.775431 -96.952362
v 32.697826 15.541599 -96.944199
v 31.839922 15.526196 -96.826599
v 32.736820 15.775431 -96.952362
v 32.073895 16.423912 -96.818924
v 32.814812 15.989777 -96.959846
v 32.970795 16.185318 -96.947166
v 33.165775 16.321718 -96.951927
v 33.380249 16.419147 -96.955330
v 32.717323 17.067629 -96.821899
v 33.614223 17.301460 -96.830070
v 33.614223 16.438633 -96.956009
v 33.848198 16.419147 -96.955330
v 34.062675 16.321718 -96.951927
v 34.491627 17.067629 -96.821899
v 27.628389 14.648649 -96.815460
v 28.525290 14.897203 -96.960709
v 28.369307 15.073256 -96.947342
v 29.168718 15.538198 -97.041618
v 28.291315 15.307088 -96.955505
v 28.252319 15.541600 -96.944191
v 27.394415 15.526196 -96.826591
v 28.291315 15.775432 -96.952354
v 27.628389 16.423912 -96.818916
v 28.369307 15.989777 -96.959839
v 28.525290 16.165831 -96.946480
v 29.402693 14.663371 -96.952553
v 29.617168 14.741314 -96.955276
v 30.709047 14.648648 -96.815468
v 30.026623 15.307087 -96.955513
v 29.948631 15.073256 -96.947350
v 29.792648 14.897202 -96.960716
v 30.046120 14.004251 -96.831985
v 29.168718 13.750933 -96.823128
v 29.168718 14.624399 -96.951187
v 28.934744 14.663371 -96.952545
v 28.271818 14.004251 -96.831978
v 28.700769 14.741315 -96.955269
v 29.402693 16.399662 -96.954651
v 29.168718 16.438633 -96.956001
v 28.934744 16.399662 -96.954643
v 28.271818 17.067629 -96.821892
v 28.700769 16.321718 -96.951920
v 29.168718 17.301460 -96.830063
v 30.046120 17.067629 -96.821899
v 29.617168 16.321718 -96.951927
v 29.792648 16.165831 -96.946487
v 30.085115 15.541599 -96.944199
v 30.943022 15.526196 -96.826599
v 30.026623 15.775431 -96.952362
v 30.709047 16.423912 -96.818924
v 29.948631 15.989777 -96.959846
v -28.291401 15.307089 -96.955490
v -27.628475 14.648649 -96.815445
v -28.369392 15.073257 -96.947327
v -28.525375 14.897203 -96.960693
v -29.168804 15.538198 -97.041603
v -29.617254 14.741316 -96.955246
v -29.402779 14.663372 -96.952522
v -29.792734 14.897203 -96.960686
v -30.046207 14.004251 -96.831955
v -29.168804 13.750934 -96.823112
v -29.168804 14.624399 -96.951172
v -28.934830 14.663372 -96.952530
v -28.271904 14.004251 -96.831963
v -28.700855 14.741316 -96.955254
v -30.709133 14.648649 -96.815437
v -29.948717 15.073257 -96.947319
v -30.026709 15.307089 -96.955482
v -27.628475 16.423912 -96.818901
v -28.525375 16.165833 -96.946465
v -28.369392 15.989778 -96.959824
v -28.291401 15.775433 -96.952339
v -27.394501 15.526197 -96.826576
v -28.252405 15.541600 -96.944176
v -30.046207 17.067629 -96.821869
v -29.792734 16.165833 -96.946457
v -29.617254 16.321718 -96.951897
v -29.402779 16.399664 -96.954620
v -29.168804 17.301460 -96.830048
v -29.168804 16.438635 -96.955986
v -28.934830 16.399662 -96.954628
v -28.271904 17.067629 -96.821877
v -28.700855 16.321718 -96.951904
v -30.085203 15.541601 -96.944168
v -30.943108 15.526197 -96.826569
v -30.026709 15.775433 -96.952332
v -30.709133 16.423912 -96.818893
v -29.948717 15.989778 -96.959816
v 35.388527 15.526196 -96.826599
v 34.530621 15.541599 -96.944199
v 34.491627 15.307087 -96.955513
v 34.394138 15.073256 -96.947350
v 35.154552 14.648648 -96.815468
vn 0.1235 0.0209 -0.9921
vn 0.1449 0.0069 -0.9894
vn 0.1463 -0.0170 -0.9891
vn 0.0187 -0.0138 -0.9997
vn 0.1224 0.0065 -0.9925
vn 0.1328 0.0209 -0.9909
vn 0.1393 0.0610 -0.9884
vn 0.1308 0.0692 -0.9890
vn 0.1054 0.0766 -0.9915
vn -0.0021 0.0251 -0.9997
vn 0.0724 0.1207 -0.9900
vn 0.1216 0.0668 -0.9903
vn 0.1325 -0.0827 -0.9877
vn 0.1066 -0.0708 -0.9918
vn 0.1282 -0.0812 -0.9884
vn 0.1189 -0.0548 -0.9914
vn -0.0022 0.0251 -0.9997
vn 0.1247 -0.0428 -0.9913
vn 0.1344 -0.0915 -0.9867
vn 0.0749 -0.1258 -0.9892
vn 0.0640 -0.1031 -0.9926
vn -0.0000 -0.1452 -0.9894
vn 0.0149 -0.1231 -0.9923
vn 0.0192 -0.1452 -0.9892
vn 0.0440 -0.1136 -0.9926
vn 0.0316 -0.0901 -0.9954
vn -0.1449 0.0068 -0.9894
vn -0.1235 0.0209 -0.9921
vn -0.1463 -0.0170 -0.9891
vn -0.1224 0.0065 -0.9925
vn -0.1236 -0.0071 -0.9923
vn -0.1473 0.0312 -0.9886
vn -0.0641 -0.1041 -0.9925
vn -0.0740 -0.1273 -0.9891
vn -0.1344 -0.0915 -0.9867
vn -0.0445 -0.1141 -0.9925
vn -0.0316 -0.0901 -0.9954
vn -0.0149 -0.1232 -0.9923
vn -0.0192 -0.1452 -0.9892
vn -0.0000 -0.1242 -0.9923
vn 0.0186 -0.0138 -0.9997
vn -0.1041 -0.0769 -0.9916
vn -0.1321 -0.0825 -0.9878
vn -0.1282 -0.0812 -0.9884
vn -0.1182 -0.0524 -0.9916
vn -0.1299 -0.0355 -0.9909
vn 0.0912 0.0895 -0.9918
vn 0.0697 0.1256 -0.9896
vn 0.0713 0.1168 -0.9906
vn 0.0760 0.1013 -0.9919
vn 0.0533 0.1134 -0.9921
vn 0.0597 0.1373 -0.9887
vn -0.0000 0.1447 -0.9895
vn -0.0000 0.0946 -0.9955
vn -0.0000 0.1222 -0.9925
vn -0.0539 0.1138 -0.9920
vn -0.0622 0.1366 -0.9887
vn -0.0699 0.1266 -0.9895
vn -0.0767 0.1022 -0.9918
vn -0.0912 0.0907 -0.9917
vn -0.0692 0.1189 -0.9905
vn -0.1304 0.0690 -0.9891
vn -0.1295 0.0295 -0.9911
vn -0.1472 0.0312 -0.9886
vn -0.1017 0.0781 -0.9917
vn -0.0709 0.0578 -0.9958
vn -0.1216 0.0668 -0.9903
vn 0.0751 -0.1278 -0.9889
vn 0.0641 -0.1041 -0.9925
vn 0.0474 -0.1117 -0.9926
vn 0.0336 -0.0889 -0.9955
vn 0.0373 -0.1186 -0.9922
vn 0.0436 -0.1414 -0.9890
vn -0.0000 -0.1473 -0.9891
vn -0.0640 -0.1031 -0.9926
vn -0.0336 -0.0890 -0.9955
vn -0.0469 -0.1112 -0.9927
vn -0.0092 -0.1248 -0.9921
vn -0.0760 -0.1263 -0.9891
vn -0.0197 -0.1477 -0.9888
vn -0.0000 -0.1230 -0.9924
vn -0.0000 -0.0985 -0.9951
vn -0.1066 -0.0708 -0.9918
vn -0.0105 0.0066 -0.9999
vn -0.1189 -0.0548 -0.9914
vn -0.1247 -0.0429 -0.9913
vn -0.1325 -0.0827 -0.9877
vn 0.1316 0.0689 -0.9889
vn 0.0824 0.1084 -0.9907
vn 0.1234 0.0683 -0.9900
vn 0.1046 0.0719 -0.9919
vn -0.0104 0.0066 -0.9999
vn 0.1295 0.0295 -0.9911
vn 0.0321 -0.0096 -0.9994
vn -0.1235 -0.0071 -0.9923
vn -0.1321 0.0692 -0.9888
vn -0.1083 0.0704 -0.9916
vn -0.0821 0.1034 -0.9912
vn -0.0180 0.0757 -0.9970
vn -0.0765 0.0998 -0.9921
vn -0.0392 0.1167 -0.9924
vn -0.0712 0.1281 -0.9892
vn -0.0465 0.1449 -0.9884
vn -0.0000 0.1480 -0.9890
vn -0.0000 0.1209 -0.9927
vn 0.0396 0.1169 -0.9924
vn 0.0771 0.1006 -0.9919
vn 0.0714 0.1291 -0.9891
vn 0.0714 0.1216 -0.9900
vn 0.0477 0.1445 -0.9883
vn -0.0987 0.0937 -0.9907
vn -0.1171 -0.1091 -0.9871
vn -0.0819 0.0072 -0.9966
vn 0.0081 -0.0413 -0.9991
vn -0.1449 0.0069 -0.9894
vn -0.1308 0.0692 -0.9890
vn -0.1054 0.0766 -0.9915
vn -0.0819 0.0073 -0.9966
vn -0.0724 0.1207 -0.9901
vn 0.0317 -0.1198 -0.9923
vn 0.0469 -0.1132 -0.9925
vn 0.1293 -0.0836 -0.9881
vn 0.1060 -0.0706 -0.9919
vn 0.1255 -0.0802 -0.9888
vn 0.1183 -0.0542 -0.9915
vn 0.0955 -0.0725 -0.9928
vn 0.0758 -0.1257 -0.9892
vn 0.0428 -0.1392 -0.9893
vn 0.0003 -0.1451 -0.9894
vn -0.0147 -0.1233 -0.9923
vn 0.1239 -0.1022 -0.9870
vn -0.0669 -0.1007 -0.9927
vn -0.0754 -0.1255 -0.9892
vn -0.0457 -0.1138 -0.9925
vn -0.0316 0.0275 -0.9991
vn -0.0184 -0.1450 -0.9893
vn 0.0539 0.1138 -0.9920
vn -0.0317 0.0276 -0.9991
vn -0.0382 0.1178 -0.9923
vn -0.0706 0.1251 -0.9896
vn -0.0460 0.1398 -0.9891
vn -0.0785 0.1011 -0.9918
vn -0.0966 0.0855 -0.9916
vn 0.0005 0.1446 -0.9895
vn 0.0622 0.1366 -0.9887
vn 0.0712 0.1255 -0.9895
vn 0.0806 0.1004 -0.9917
vn 0.0971 0.0861 -0.9915
vn 0.0864 0.0408 -0.9954
vn -0.0713 0.1168 -0.9906
vn 0.1221 0.0129 -0.9924
vn 0.1232 0.0066 -0.9924
vn 0.1423 0.0069 -0.9898
vn 0.1223 0.0007 -0.9925
vn 0.1440 0.0307 -0.9891
vn 0.1279 0.0698 -0.9893
vn 0.1044 0.0766 -0.9916
vn 0.0717 0.1209 -0.9901
vn 0.1431 -0.0164 -0.9896
vn 0.1180 0.0704 -0.9905
vn 0.1344 -0.0916 -0.9867
vn 0.0328 0.0058 -0.9994
vn -0.0469 -0.1132 -0.9925
vn -0.0149 -0.1231 -0.9923
vn -0.0671 -0.1010 -0.9926
vn -0.0758 -0.1257 -0.9892
vn -0.0003 -0.1451 -0.9894
vn -0.0483 -0.0699 -0.9964
vn 0.0148 -0.1233 -0.9923
vn -0.1305 -0.0955 -0.9868
vn 0.0184 -0.1450 -0.9893
vn 0.0754 -0.1255 -0.9892
vn 0.0457 -0.1138 -0.9925
vn 0.0669 -0.1007 -0.9927
vn 0.0684 -0.0417 -0.9968
vn -0.1293 -0.0836 -0.9881
vn -0.1241 -0.0437 -0.9913
vn -0.1183 -0.0542 -0.9915
vn -0.1060 -0.0706 -0.9919
vn -0.1255 -0.0802 -0.9888
vn 0.1449 0.0068 -0.9894
vn -0.0712 0.1254 -0.9895
vn -0.0971 0.0861 -0.9915
vn -0.0806 0.1004 -0.9917
vn -0.0664 0.0759 -0.9949
vn -0.0005 0.1446 -0.9895
vn 0.0259 0.1212 -0.9923
vn 0.0328 0.0059 -0.9994
vn 0.0298 0.1444 -0.9891
vn 0.0706 0.1251 -0.9896
vn 0.0785 0.1011 -0.9918
vn 0.0966 0.0855 -0.9916
vn 0.0632 0.0762 -0.9951
vn -0.1232 0.0066 -0.9924
vn -0.1057 0.0068 -0.9944
vn -0.1221 0.0129 -0.9924
vn -0.1423 0.0069 -0.9898
vn -0.1321 0.0206 -0.9910
vn -0.1364 0.0600 -0.9888
vn -0.1279 0.0699 -0.9893
vn -0.1044 0.0765 -0.9916
vn -0.0717 0.1209 -0.9901
vn -0.1180 0.0704 -0.9905
vn -0.1431 -0.0164 -0.9896
vn 0.1236 -0.0071 -0.9923
vn 0.1140 -0.0278 -0.9931
vn 0.1182 -0.0524 -0.9916
vn 0.1299 -0.0355 -0.9909
vn 0.1321 -0.0825 -0.9878
vn 0.1372 -0.0494 -0.9893
vt 0.312271 0.190765
vt 0.422394 0.218185
vt 0.414627 0.163330
vt 0.209930 0.218185
vt 0.312271 0.218185
vt 0.312271 0.245605
vt 0.414627 0.273026
vt 0.393921 0.324417
vt 0.298569 0.269363
vt 0.284851 0.293106
vt 0.359772 0.368027
vt 0.393921 0.111954
vt 0.298569 0.167007
vt 0.284851 0.143265
vt 0.359772 0.068344
vt 0.316162 0.034180
vt 0.209930 0.005722
vt 0.237350 0.115829
vt 0.264771 0.013489
vt 0.261108 0.129547
vt -0.002533 0.218185
vt 0.107574 0.190765
vt 0.005234 0.163330
vt 0.107574 0.218185
vt 0.107574 0.245605
vt 0.005234 0.273026
vt 0.135010 0.143265
vt 0.103699 0.034180
vt 0.060074 0.068344
vt 0.158752 0.129547
vt 0.182510 0.115829
vt 0.155075 0.013489
vt 0.209930 0.115829
vt 0.025925 0.111954
vt 0.121292 0.167007
vt 0.316162 0.402176
vt 0.261108 0.306824
vt 0.237350 0.320526
vt 0.264771 0.422882
vt 0.209930 0.430649
vt 0.209930 0.320526
vt 0.182510 0.320526
vt 0.155075 0.422882
vt 0.103699 0.402176
vt 0.158752 0.306824
vt 0.135010 0.293106
vt 0.060074 0.368027
vt 0.025925 0.324417
vt 0.121292 0.269363
vt 0.390198 0.690414
vt 0.282455 0.721359
vt 0.356415 0.647400
vt 0.295990 0.744797
vt 0.208496 0.795319
vt 0.309525 0.768250
vt 0.410553 0.741165
vt 0.309525 0.795319
vt 0.418304 0.795319
vt 0.309525 0.822388
vt 0.410553 0.849457
vt 0.390198 0.900208
vt 0.295990 0.845825
vt 0.282455 0.869263
vt 0.356415 0.943222
vt 0.181427 0.694290
vt 0.157990 0.707825
vt 0.026810 0.690414
vt 0.107483 0.768250
vt 0.006454 0.741165
vt 0.121017 0.744797
vt 0.134552 0.721359
vt 0.103607 0.613617
vt 0.154358 0.593262
vt 0.208496 0.585510
vt 0.208496 0.694290
vt 0.235565 0.694290
vt 0.060593 0.647400
vt 0.313400 0.613617
vt 0.259018 0.707825
vt 0.262650 0.593262
vt 0.181427 0.896332
vt 0.208496 0.896332
vt 0.235565 0.896332
vt 0.313400 0.977005
vt 0.262650 0.997360
vt 0.259018 0.882797
vt 0.208496 1.005112
vt 0.154358 0.997360
vt 0.103607 0.977005
vt 0.157990 0.882797
vt 0.134552 0.869263
vt 0.060593 0.943222
vt 0.107483 0.795319
vt -0.001297 0.795319
vt 0.107483 0.822388
vt 0.006454 0.849457
vt 0.026810 0.900208
vt 0.121017 0.845825
s 1
usemtl slamvan_lights_glass
f 49/1/1 50/2/2 21/3/3
f 49/1/1 51/4/4 52/5/5
f 50/2/2 49/1/1 52/5/5
f 53/6/6 50/2/2 52/5/5
f 50/2/2 53/6/6 20/7/7
f 53/6/6 54/8/8 20/7/7
f 54/8/8 53/6/6 55/9/9
f 53/6/6 51/4/10 55/9/9
f 55/9/9 51/4/10 56/10/11
f 52/5/5 51/4/4 53/6/6
f 56/10/11 54/8/8 55/9/9
f 54/8/8 56/10/11 19/11/12
f 57/12/13 49/1/14 21/3/15
f 49/1/14 57/12/13 58/13/16
f 58/13/16 51/4/17 49/1/14
f 59/14/18 51/4/17 58/13/16
f 57/12/13 59/14/18 58/13/16
f 59/14/18 57/12/13 22/15/19
f 60/16/20 59/14/21 22/15/19
f 61/17/22 62/18/23 23/19/24
f 62/18/23 60/16/20 23/19/24
f 60/16/20 62/18/23 63/20/25
f 59/14/21 60/16/20 63/20/25
f 63/20/25 51/4/26 59/14/21
f 62/18/23 51/4/26 63/20/25
f 64/21/27 65/22/28 14/23/29
f 65/22/28 64/21/27 66/24/30
f 66/24/30 51/4/17 65/22/28
f 67/25/31 51/4/17 66/24/30
f 64/21/27 67/25/31 66/24/30
f 67/25/31 64/21/27 15/26/32
f 68/27/33 69/28/34 13/29/35
f 69/28/34 68/27/33 70/30/36
f 68/27/33 51/4/37 70/30/36
f 70/30/36 51/4/37 71/31/38
f 71/31/38 69/28/34 70/30/36
f 69/28/34 71/31/38 24/32/39
f 71/31/38 61/17/22 24/32/39
f 61/17/22 71/31/38 72/33/40
f 62/18/23 61/17/22 72/33/40
f 72/33/40 51/4/41 62/18/23
f 71/31/38 51/4/41 72/33/40
f 65/22/42 73/34/43 14/23/44
f 73/34/43 65/22/42 74/35/45
f 65/22/42 51/4/41 74/35/45
f 74/35/45 51/4/41 68/27/46
f 68/27/46 73/34/43 74/35/45
f 73/34/43 68/27/46 13/29/35
f 56/10/47 75/36/48 19/11/49
f 75/36/48 56/10/47 76/37/50
f 56/10/47 51/4/4 76/37/50
f 76/37/50 51/4/4 77/38/51
f 77/38/51 75/36/48 76/37/50
f 75/36/48 77/38/51 18/39/52
f 77/38/51 78/40/53 18/39/52
f 77/38/51 51/4/54 79/41/55
f 78/40/53 77/38/51 79/41/55
f 80/42/56 78/40/53 79/41/55
f 78/40/53 80/42/56 17/43/57
f 80/42/56 81/44/58 17/43/57
f 81/44/58 80/42/56 82/45/59
f 80/42/56 51/4/17 82/45/59
f 82/45/59 51/4/17 83/46/60
f 79/41/55 51/4/54 80/42/56
f 81/44/58 83/46/60 16/47/61
f 83/46/60 81/44/58 82/45/59
f 84/48/62 67/25/63 15/26/64
f 67/25/63 84/48/62 85/49/65
f 85/49/65 51/4/66 67/25/63
f 83/46/60 51/4/66 85/49/65
f 84/48/62 83/46/60 85/49/65
f 83/46/60 84/48/62 16/47/67
f 86/28/68 87/27/69 46/29/19
f 87/27/69 86/28/68 88/30/70
f 88/30/70 89/4/71 87/27/69
f 90/31/72 89/4/71 88/30/70
f 86/28/68 90/31/72 88/30/70
f 90/31/72 86/28/68 45/32/73
f 91/17/74 90/31/72 45/32/73
f 92/14/75 89/4/76 93/20/77
f 93/20/77 89/4/76 94/18/78
f 94/18/78 95/16/79 93/20/77
f 95/16/79 94/18/78 44/19/80
f 94/18/78 91/17/74 44/19/80
f 91/17/74 94/18/78 96/33/81
f 90/31/72 91/17/74 96/33/81
f 96/33/81 89/4/82 90/31/72
f 94/18/78 89/4/82 96/33/81
f 92/14/75 95/16/79 43/15/35
f 95/16/79 92/14/75 93/20/77
f 97/1/83 89/4/84 98/13/85
f 98/13/85 89/4/84 92/14/86
f 92/14/86 99/12/87 98/13/85
f 99/12/87 92/14/86 43/15/35
f 99/12/87 97/1/83 98/13/85
f 97/1/83 99/12/87 42/3/44
f 100/48/88 101/46/89 37/47/90
f 101/46/89 100/48/88 102/49/91
f 102/49/91 89/4/92 101/46/89
f 103/25/93 89/4/92 102/49/91
f 100/48/88 103/25/93 102/49/91
f 103/25/93 100/48/88 48/26/7
f 104/5/30 89/4/94 97/1/28
f 97/1/28 105/2/27 104/5/30
f 105/2/27 106/6/95 104/5/30
f 106/6/95 105/2/27 41/7/64
f 107/8/96 106/6/95 41/7/64
f 106/6/95 107/8/96 108/9/97
f 107/8/96 109/10/98 108/9/97
f 109/10/98 89/4/99 108/9/97
f 110/37/100 89/4/99 109/10/98
f 111/38/101 89/4/99 110/37/100
f 112/36/102 111/38/101 110/37/100
f 111/38/101 112/36/102 39/39/103
f 113/40/104 111/38/101 39/39/103
f 111/38/101 113/40/104 114/41/105
f 113/40/104 115/42/106 114/41/105
f 115/42/106 89/4/99 114/41/105
f 116/45/107 89/4/99 115/42/106
f 101/46/89 89/4/99 116/45/107
f 117/44/108 101/46/89 116/45/107
f 101/46/89 117/44/108 37/47/109
f 108/9/97 89/4/99 106/6/95
f 114/41/105 89/4/99 111/38/101
f 115/42/106 113/40/104 38/43/110
f 117/44/108 115/42/106 38/43/110
f 115/42/106 117/44/108 116/45/107
f 109/10/98 112/36/102 110/37/100
f 112/36/102 109/10/98 40/11/111
f 109/10/98 107/8/96 40/11/111
f 118/50/87 119/51/86 31/52/112
f 119/51/86 118/50/87 120/53/85
f 120/53/85 121/54/113 119/51/86
f 122/55/83 121/54/113 120/53/85
f 118/50/87 122/55/83 120/53/85
f 122/55/83 118/50/87 30/56/44
f 123/57/30 121/54/114 122/55/28
f 122/55/28 124/58/115 123/57/30
f 124/58/115 125/59/95 123/57/30
f 125/59/95 124/58/115 29/60/32
f 126/61/116 125/59/95 29/60/32
f 125/59/95 126/61/116 127/62/117
f 127/62/117 121/54/118 125/59/95
f 128/63/119 121/54/118 127/62/117
f 126/61/116 128/63/119 127/62/117
f 128/63/119 126/61/116 28/64/67
f 125/59/95 121/54/114 123/57/30
f 124/58/115 122/55/28 30/56/29
f 129/65/120 121/54/114 130/66/121
f 131/67/122 132/68/123 35/69/124
f 132/68/123 131/67/122 133/70/125
f 133/70/125 121/54/114 132/68/123
f 134/71/126 121/54/114 133/70/125
f 130/66/121 121/54/114 134/71/126
f 134/71/126 135/72/127 130/66/121
f 135/72/127 129/65/120 130/66/121
f 129/65/120 135/72/127 33/73/128
f 136/74/129 129/65/120 33/73/128
f 129/65/120 136/74/129 137/75/40
f 136/74/129 138/76/130 137/75/40
f 138/76/130 121/54/82 137/75/40
f 137/75/40 121/54/82 129/65/120
f 131/67/122 134/71/126 133/70/125
f 134/71/126 131/67/122 34/77/131
f 135/72/127 134/71/126 34/77/131
f 119/51/132 139/78/133 31/52/112
f 139/78/133 119/51/132 140/79/134
f 119/51/132 121/54/135 140/79/134
f 140/79/134 121/54/135 138/76/130
f 138/76/130 139/78/133 140/79/134
f 139/78/133 138/76/130 32/80/136
f 138/76/130 136/74/129 32/80/136
f 141/81/137 121/54/138 142/82/55
f 143/83/139 144/84/140 27/85/141
f 144/84/140 143/83/139 145/86/142
f 128/63/143 144/84/140 145/86/142
f 145/86/142 121/54/138 128/63/143
f 143/83/139 121/54/138 145/86/142
f 142/82/55 121/54/138 143/83/139
f 143/83/139 146/87/144 142/82/55
f 146/87/144 141/81/137 142/82/55
f 141/81/137 146/87/144 26/88/145
f 147/89/146 141/81/137 26/88/145
f 141/81/137 147/89/146 148/90/147
f 147/89/146 149/91/148 148/90/147
f 149/91/148 121/54/149 148/90/147
f 148/90/147 121/54/149 141/81/137
f 146/87/144 143/83/139 27/85/141
f 149/91/148 147/89/146 25/92/49
f 144/84/140 128/63/143 28/64/150
f 132/68/151 121/54/149 150/93/152
f 151/94/153 132/68/151 150/93/152
f 152/95/154 151/94/153 150/93/152
f 151/94/153 152/95/154 36/96/155
f 152/95/154 153/97/156 36/96/155
f 153/97/156 152/95/154 154/98/157
f 149/91/158 153/97/156 154/98/157
f 154/98/157 121/54/149 149/91/158
f 152/95/154 121/54/149 154/98/157
f 150/93/152 121/54/149 152/95/154
f 132/68/151 151/94/153 35/69/159
f 153/97/156 149/91/158 25/92/160
f 155/55/14 156/50/13 157/53/16
f 156/50/13 155/55/14 9/56/15
f 158/51/18 156/50/13 10/52/161
f 156/50/13 158/51/18 157/53/16
f 158/51/18 159/54/162 157/53/16
f 157/53/16 159/54/162 155/55/14
f 160/66/163 159/54/162 161/65/164
f 162/71/165 159/54/162 160/66/163
f 163/72/166 162/71/165 160/66/163
f 161/65/164 163/72/166 160/66/163
f 163/72/166 161/65/164 12/73/39
f 161/65/164 164/74/167 12/73/39
f 164/74/167 161/65/164 165/75/40
f 161/65/164 159/54/168 165/75/40
f 165/75/40 159/54/168 166/76/169
f 162/71/165 163/72/166 1/77/170
f 166/76/169 164/74/167 165/75/40
f 164/74/167 166/76/169 11/80/171
f 166/76/169 167/78/172 11/80/171
f 167/78/172 166/76/169 168/79/173
f 158/51/174 167/78/172 168/79/173
f 168/79/173 159/54/175 158/51/174
f 166/76/169 159/54/175 168/79/173
f 167/78/172 158/51/174 10/52/161
f 169/67/176 162/71/177 1/77/170
f 162/71/177 169/67/176 170/70/178
f 170/70/178 159/54/168 162/71/177
f 171/68/179 159/54/168 170/70/178
f 171/68/179 169/67/176 2/69/180
f 169/67/176 171/68/179 170/70/178
f 172/61/8 173/63/11 7/64/12
f 173/63/11 172/61/8 174/62/9
f 174/62/9 159/54/162 173/63/11
f 175/59/6 159/54/162 174/62/9
f 172/61/8 175/59/6 174/62/9
f 175/59/6 172/61/8 8/60/7
f 176/58/181 175/59/6 8/60/7
f 175/59/6 176/58/181 177/57/5
f 176/58/181 155/55/1 177/57/5
f 155/55/1 159/54/175 177/57/5
f 177/57/5 159/54/175 175/59/6
f 155/55/1 176/58/181 9/56/3
f 178/89/182 179/91/183 4/92/150
f 179/91/183 178/89/182 180/90/184
f 180/90/184 159/54/185 179/91/183
f 181/81/56 159/54/185 180/90/184
f 178/89/182 181/81/56 180/90/184
f 181/81/56 178/89/182 5/88/57
f 182/87/186 181/81/56 5/88/57
f 181/81/56 182/87/186 183/82/55
f 182/87/186 184/83/187 183/82/55
f 184/83/187 159/54/188 183/82/55
f 183/82/55 159/54/188 181/81/56
f 184/83/187 182/87/186 6/85/189
f 185/84/190 184/83/187 6/85/189
f 184/83/187 185/84/190 186/86/191
f 185/84/190 173/63/192 186/86/191
f 173/63/192 159/54/193 186/86/191
f 186/86/191 159/54/193 184/83/187
f 173/63/192 185/84/190 7/64/49
f 187/93/194 159/54/195 171/68/196
f 171/68/196 188/94/197 187/93/194
f 188/94/197 189/95/198 187/93/194
f 189/95/198 188/94/197 3/96/199
f 190/97/200 189/95/198 3/96/199
f 189/95/198 190/97/200 191/98/201
f 190/97/200 179/91/202 191/98/201
f 179/91/202 159/54/185 191/98/201
f 191/98/201 159/54/185 189/95/198
f 189/95/198 159/54/195 187/93/194
f 179/91/202 190/97/200 4/92/203
f 188/94/197 171/68/196 2/69/204
f 192/21/2 103/25/205 48/26/7
f 103/25/205 192/21/2 193/24/5
f 192/21/2 194/22/206 193/24/5
f 194/22/206 89/4/94 193/24/5
f 195/35/207 89/4/94 194/22/206
f 87/27/208 89/4/94 195/35/207
f 196/34/209 87/27/208 195/35/207
f 87/27/208 196/34/209 46/29/19
f 193/24/5 89/4/94 103/25/205
f 194/22/206 196/34/209 195/35/207
f 196/34/209 194/22/206 47/23/210
f 194/22/206 192/21/2 47/23/210
f 106/6/95 89/4/94 104/5/30
f 105/2/27 97/1/28 42/3/29
