# Blender 5.0.1
# www.blender.org
mtllib rbump.mtl
o rbump
v -26.166138 12.947432 -98.043678
v -32.112976 12.830517 -98.039589
v -31.840008 12.947433 -98.043671
v -20.004822 7.237367 -97.863785
v -20.121809 12.830517 -98.039597
v -20.004822 12.538226 -98.029388
v -20.121809 6.945076 -97.853577
v -20.414276 6.828161 -97.849495
v -26.166138 6.828161 -97.849495
v -31.840008 6.828161 -97.849487
v -32.112976 6.945076 -97.853569
v -32.229965 7.237367 -97.863777
v -32.229965 12.538226 -98.029381
v -20.414276 12.947432 -98.043678
vn -0.0000 -0.0317 -0.9995
vn -0.0013 -0.0321 -0.9995
vn -0.0000 -0.0348 -0.9994
vn -0.0015 -0.0332 -0.9994
vn 0.0015 -0.0319 -0.9995
vn 0.0092 -0.0312 -0.9995
vn -0.0016 -0.0333 -0.9994
vn -0.0007 -0.0324 -0.9995
vn 0.0006 -0.0316 -0.9995
vn 0.0025 -0.0316 -0.9995
vn 0.0081 -0.0316 -0.9995
vn -0.0092 -0.0312 -0.9995
vn -0.0000 -0.0349 -0.9994
vt 0.502701 0.992065
vt 0.987991 0.968399
vt 0.967484 0.992065
vt 0.001389 0.084167
vt 0.009903 0.968399
vt 0.001389 0.911301
vt 0.009903 0.027084
vt 0.030411 0.003418
vt 0.502701 0.003418
vt 0.967484 0.003418
vt 0.987991 0.027084
vt 0.996506 0.084167
vt 0.996506 0.911301
vt 0.030411 0.992065
s 1
usemtl plate03
f 1/1/1 2/2/2 3/3/3
f 4/4/4 5/5/5 6/6/6
f 4/4/4 1/1/1 5/5/5
f 7/7/7 1/1/1 4/4/4
f 7/7/7 8/8/8 1/1/1
f 1/1/1 8/8/8 9/9/1
f 10/10/9 1/1/1 9/9/1
f 10/10/9 2/2/2 1/1/1
f 11/11/10 2/2/2 10/10/9
f 11/11/10 12/12/11 2/2/2
f 2/2/2 12/12/11 13/13/12
f 5/5/5 1/1/1 14/14/13
